<?xml version="1.0" encoding="UTF-8"?><svg id="_圖層_2" xmlns="http://www.w3.org/2000/svg" viewBox="0 0 59.29 58.94"><defs><style>.cls-1{fill:#bebebe;}</style></defs><g id="_圖層_1-2"><path class="cls-1" d="M55.88,40.71c1.88,0,3.41-1.53,3.41-3.41V14.22c0-4.81-3.92-8.73-8.73-8.73h-4.01V1.25c0-.69-.56-1.25-1.25-1.25s-1.25,.56-1.25,1.25V5.49h-12.85V1.25c0-.69-.56-1.25-1.25-1.25s-1.25,.56-1.25,1.25V5.49H15.59V1.25c0-.69-.56-1.25-1.25-1.25s-1.25,.56-1.25,1.25V5.49h-4.36C3.92,5.49,0,9.41,0,14.22V50.21c0,4.81,3.92,8.73,8.73,8.73H50.56c4.81,0,8.73-3.92,8.73-8.73h-2.5c0,3.43-2.79,6.23-6.23,6.23h-9.38v-15.73h14.7Zm0-2.5h-14.7V21.31h15.61v15.99c0,.5-.41,.91-.91,.91ZM2.5,21.31H18.7v16.9H2.5V21.31Zm18.7,0h17.48v16.9H21.2V21.31ZM8.73,7.99h4.36v4.01c0,.69,.56,1.25,1.25,1.25s1.25-.56,1.25-1.25V7.99h13.12v4.01c0,.69,.56,1.25,1.25,1.25s1.25-.56,1.25-1.25V7.99h12.85v4.01c0,.69,.56,1.25,1.25,1.25s1.25-.56,1.25-1.25V7.99h4.01c3.43,0,6.23,2.79,6.23,6.23v4.59H2.5v-4.59c0-3.43,2.79-6.23,6.23-6.23ZM2.5,50.21v-9.5H18.7v15.73H8.73c-3.43,0-6.23-2.79-6.23-6.23Zm36.18,6.23H21.2v-15.73h17.48v15.73Z"/></g></svg>