<?xml version="1.0" encoding="utf-8"?>
<!-- Generator: Adobe Illustrator 26.5.0, SVG Export Plug-In . SVG Version: 6.00 Build 0)  -->
<svg version="1.1" id="_圖層_2" xmlns="http://www.w3.org/2000/svg" xmlns:xlink="http://www.w3.org/1999/xlink" x="0px" y="0px"
	 viewBox="0 0 59.3 58.9" style="enable-background:new 0 0 59.3 58.9;" xml:space="preserve">
<style type="text/css">
	.st0{fill:#2E75B7;}
</style>
<g id="_圖層_1-2">
	<path class="st0" d="M55.9,40.7c1.9,0,3.4-1.5,3.4-3.4V14.2c0-4.8-3.9-8.7-8.7-8.7h-4V1.2C46.6,0.6,46,0,45.3,0s-1.2,0.6-1.2,1.2
		v4.2H31.2V1.2C31.2,0.6,30.6,0,30,0s-1.2,0.6-1.2,1.2v4.2H15.6V1.2C15.6,0.6,15,0,14.3,0s-1.2,0.6-1.2,1.2v4.2H8.7
		C3.9,5.5,0,9.4,0,14.2v36c0,4.8,3.9,8.7,8.7,8.7h41.8c4.8,0,8.7-3.9,8.7-8.7h-2.5c0,3.4-2.8,6.2-6.2,6.2h-9.4V40.7H55.9z
		 M55.9,38.2H41.2V21.3h15.6v16C56.8,37.8,56.4,38.2,55.9,38.2z M2.5,21.3h16.2v16.9H2.5V21.3z M21.2,21.3h17.5v16.9H21.2V21.3z
		 M8.7,8h4.4v4c0,0.7,0.6,1.2,1.2,1.2s1.2-0.6,1.2-1.2V8h13.1v4c0,0.7,0.6,1.2,1.2,1.2S31,12.6,31,12V8h12.8v4
		c0,0.7,0.6,1.2,1.2,1.2s1.2-0.6,1.2-1.2V8h4c3.4,0,6.2,2.8,6.2,6.2v4.6H2.5v-4.6C2.5,10.8,5.3,8,8.7,8z M2.5,50.2v-9.5h16.2v15.7
		h-10C5.3,56.4,2.5,53.6,2.5,50.2z M38.7,56.4H21.2V40.7h17.5V56.4z"/>
</g>
</svg>
