<?xml version="1.0" encoding="UTF-8"?><svg id="_圖層_2" xmlns="http://www.w3.org/2000/svg" viewBox="0 0 15.2 15.13"><defs><style>.cls-1{fill:#1152a0;}</style></defs><g id="_圖層_1-2"><g id="_圖層_1-2-2"><g><g><path class="cls-1" d="M13.99,10.3c.46,0,.83-.37,.83-.83V3.86c0-1.17-.95-2.12-2.12-2.12h-.98V.7c0-.17-.14-.3-.3-.3s-.3,.14-.3,.3V1.74h-3.12V.7c0-.17-.14-.3-.3-.3s-.3,.14-.3,.3V1.74h-3.19V.7c0-.17-.14-.3-.3-.3s-.3,.14-.3,.3V1.74h-1.06C1.35,1.74,.4,2.69,.4,3.86V12.61c0,1.17,.95,2.12,2.12,2.12H12.7c1.17,0,2.12-.95,2.12-2.12h-.61c0,.83-.68,1.52-1.52,1.52h-2.28v-3.83h3.58Zm0-.61h-3.57V5.58h3.8v3.89c0,.12-.1,.22-.22,.22h-.01ZM1.01,5.58h3.94v4.11H1.01V5.58Zm4.55,0h4.25v4.11H5.56s0-4.11,0-4.11ZM2.52,2.34h1.06v.98c0,.17,.14,.3,.3,.3s.3-.14,.3-.3v-.98h3.19v.98c0,.17,.14,.3,.3,.3s.3-.14,.3-.3v-.98h3.12v.98c0,.17,.14,.3,.3,.3s.3-.14,.3-.3v-.98h.98c.83,0,1.52,.68,1.52,1.52v1.12H1.01v-1.12c0-.83,.68-1.52,1.52-1.52h0ZM1.01,12.61v-2.31h3.94v3.83H2.52c-.83,0-1.52-.68-1.52-1.52h0Zm8.8,1.52H5.56v-3.83h4.25s0,3.83,0,3.83Z"/><path class="cls-1" d="M12.7,14.88H2.52c-1.25,0-2.27-1.02-2.27-2.27V3.86C.25,2.61,1.27,1.58,2.52,1.58h.91V.7c0-.25,.2-.45,.45-.45s.45,.2,.45,.45v.88h2.89V.7c0-.25,.2-.45,.45-.45s.45,.2,.45,.45v.88h2.82V.7c0-.25,.2-.45,.45-.45s.46,.2,.46,.45v.88h.82c1.25,0,2.27,1.02,2.27,2.27v5.61c0,.54-.44,.98-.98,.98h-3.42v3.52h2.13c.75,0,1.37-.61,1.37-1.37v-.15h.91v.15c0,1.25-1.02,2.27-2.27,2.27l.02,.02ZM2.52,1.89c-1.09,0-1.97,.88-1.97,1.97V12.61c0,1.09,.89,1.97,1.97,1.97H12.7c1.04,0,1.89-.8,1.97-1.82h-.31c-.08,.85-.79,1.52-1.66,1.52h-2.43v-4.13h3.73c.37,0,.68-.3,.68-.68V3.86c0-1.09-.88-1.97-1.97-1.97h-1.12V.7c0-.08-.07-.15-.15-.15s-.15,.07-.15,.15V1.89h-3.43V.7c0-.08-.07-.15-.15-.15s-.15,.07-.15,.15V1.89h-3.49V.7c0-.08-.07-.15-.15-.15s-.15,.07-.15,.15V1.89h-1.25Zm7.43,12.39H5.41v-4.13h4.55v4.13h-.01Zm-4.25-.3h3.95v-3.52h-3.95s0,3.52,0,3.52Zm-.61,.3H2.52c-.92,0-1.67-.75-1.67-1.67v-2.46H5.1v4.13h-.01Zm-3.94-3.83v2.16c0,.75,.61,1.37,1.37,1.37h2.27v-3.52H1.15Zm12.83-.62h-3.73V5.43h4.1v4.04c0,.21-.17,.37-.37,.37Zm-3.42-.3h3.42s.07-.03,.07-.07v-3.74h-3.5v3.81h.01Zm-.61,.3H5.41V5.43h4.55v4.41h-.01Zm-4.25-.3h3.95v-3.81h-3.95v3.81Zm-.61,.3H.86V5.43H5.1v4.41h-.01Zm-3.94-.3h3.64v-3.81H1.16v3.81h-.01ZM14.36,5.12H.86v-1.27c0-.92,.75-1.67,1.67-1.67h1.21v1.13c0,.08,.07,.15,.15,.15s.15-.07,.15-.15v-1.13h3.49v1.13c0,.08,.07,.15,.15,.15s.15-.07,.15-.15v-1.13h3.43v1.13c0,.08,.07,.15,.15,.15s.15-.07,.15-.15v-1.13h1.13c.92,0,1.67,.75,1.67,1.67v1.27Zm-13.21-.3H14.06v-.97c0-.75-.61-1.37-1.36-1.37h-.83v.83c0,.25-.2,.45-.45,.45s-.45-.2-.45-.45v-.83h-2.83v.83c0,.25-.2,.45-.45,.45s-.45-.2-.45-.45v-.83h-2.89v.83c0,.25-.2,.45-.45,.45s-.45-.2-.45-.45v-.83h-.91c-.75,0-1.37,.61-1.37,1.37v.97h-.02Z"/></g><g><path class="cls-1" d="M12.7,14.98H2.52c-1.31,0-2.37-1.06-2.37-2.37V3.86c0-1.31,1.06-2.38,2.37-2.38h.81V.7c0-.31,.25-.55,.55-.55s.55,.25,.55,.55v.78h2.69V.7c0-.31,.25-.55,.55-.55s.55,.25,.55,.55v.78h2.62V.7c0-.31,.25-.55,.55-.55s.55,.25,.55,.55v.78h.72c1.31,0,2.37,1.06,2.37,2.37v5.61c0,.59-.48,1.08-1.08,1.08h-3.33v3.33h2.03c.7,0,1.27-.57,1.27-1.26v-.25h1.11v.25c0,1.31-1.06,2.37-2.37,2.37h.04ZM2.52,1.98c-1.03,0-1.87,.84-1.87,1.87V12.61c0,1.03,.84,1.87,1.87,1.87H12.7c.95,0,1.73-.71,1.86-1.62h-.11c-.12,.86-.86,1.51-1.75,1.51h-2.53v-4.33h3.83c.32,0,.58-.26,.58-.58V3.86c0-1.03-.84-1.87-1.87-1.87h-1.22V.7c0-.06-.11-.06-.11,0V1.98h-3.62V.7c0-.06-.11-.06-.11,0V1.98H3.94V.7c0-.06-.11-.06-.11,0V1.98h-1.31Zm7.53,12.39H5.31v-4.33h4.75v4.33h0Zm-4.25-.5h3.75v-3.33h-3.75v3.33Zm-.61,.5H2.52c-.97,0-1.77-.79-1.77-1.76v-2.56H5.2v4.33h0Zm-3.94-3.84v2.06c0,.7,.57,1.26,1.27,1.26h2.17v-3.33H1.25Zm12.73-.6h-3.83V5.33h4.3v4.14c0,.26-.21,.47-.47,.47h0Zm-3.33-.51h3.3v-3.61h-3.3v3.61Zm-.61,.5H5.31V5.33h4.75v4.61h-.02Zm-4.25-.51h3.75v-3.61h-3.75v3.61Zm-.61,.5H.76V5.33H5.2v4.61h-.02Zm-3.94-.51h3.44v-3.61H1.26v3.61h-.02ZM14.46,5.22H.76v-1.37c0-.97,.79-1.76,1.77-1.76h1.31v1.22c0,.06,.11,.06,.11,0v-1.22h3.69v1.22c0,.06,.11,.06,.11,0v-1.22h3.62v1.22c0,.06,.11,.06,.11,0v-1.22h1.23c.97,0,1.76,.79,1.76,1.76v1.37h0ZM1.26,4.72H13.96v-.87c0-.7-.57-1.26-1.26-1.26h-.73v.72c0,.31-.25,.55-.55,.55s-.55-.25-.55-.55v-.72h-2.62v.72c0,.31-.25,.55-.55,.55s-.55-.25-.55-.55v-.72h-2.69v.72c0,.31-.25,.55-.55,.55s-.55-.25-.55-.55v-.72h-.81c-.7,0-1.27,.57-1.27,1.26v.87h-.02Z"/><path class="cls-1" d="M12.7,15.13H2.52c-1.39,0-2.52-1.13-2.52-2.52V3.86C0,2.47,1.13,1.33,2.52,1.33h.66V.7c0-.39,.32-.7,.7-.7s.7,.32,.7,.7v.63h2.39V.7c0-.39,.32-.7,.7-.7s.7,.32,.7,.7v.63h2.32V.7c0-.39,.32-.7,.7-.7s.71,.32,.71,.7v.63h.57c1.39,0,2.52,1.13,2.52,2.52v5.61c0,.68-.55,1.23-1.23,1.23h-3.17v3.02h1.88c.62,0,1.12-.5,1.12-1.11v-.4h1.41v.4c0,1.39-1.13,2.52-2.52,2.52h.02ZM2.52,1.64C1.3,1.64,.3,2.63,.3,3.86V12.61c0,1.23,1,2.22,2.22,2.22H12.7c1.23,0,2.22-1,2.22-2.22v-.1h-.81v.1c0,.78-.64,1.42-1.42,1.42h-2.18v-3.63h3.48c.51,0,.93-.42,.93-.93V3.86c0-1.23-1-2.22-2.22-2.22h-.88V.7c0-.22-.18-.4-.4-.4s-.4,.18-.4,.4v.93h-2.93V.7c0-.22-.18-.4-.4-.4s-.4,.18-.4,.4v.93h-2.99V.7c0-.22-.18-.4-.4-.4s-.4,.18-.4,.4v.93h-.98ZM12.7,14.63H2.52c-1.12,0-2.02-.91-2.02-2.02V3.86C.5,2.74,1.41,1.83,2.52,1.83h1.16V.7c0-.11,.09-.19,.2-.19s.2,.09,.2,.19V1.83h3.39V.7c0-.11,.09-.19,.2-.19s.2,.09,.2,.19V1.83h3.32V.7c0-.11,.09-.19,.21-.19s.2,.09,.2,.19V1.83h1.07c1.12,0,2.02,.91,2.02,2.02v5.61c0,.4-.33,.73-.73,.73h-3.67v4.02h2.38c.8,0,1.49-.6,1.6-1.39l.02-.13h.41l-.02,.17c-.13,1-1,1.75-2,1.75l.02,.02Zm-7.24-.41h4.45v-4.02H5.46s0,4.02,0,4.02ZM.91,10.2v2.41c0,.89,.72,1.61,1.62,1.61h2.52v-4.02s-4.14,0-4.14,0Zm9.41-.41h3.67c.18,0,.32-.14,.32-.32v-3.99h-4v4.31h.01Zm-4.86,0h4.45V5.48H5.46s0,4.31,0,4.31Zm-4.55,0H5.05V5.48H.91s0,4.31,0,4.31Zm0-4.72H14.31v-1.22c0-.89-.72-1.61-1.61-1.61h-1.08v1.07c0,.11-.09,.19-.2,.19s-.21-.08-.21-.19v-1.07h-3.32v1.07c0,.11-.09,.19-.2,.19s-.2-.08-.2-.19v-1.07h-3.39v1.07c0,.11-.09,.2-.2,.2s-.2-.09-.2-.2v-1.07h-1.16c-.89,0-1.62,.72-1.62,1.61v1.22h-.01ZM9.71,14.03H5.66v-3.63h4.05v3.63Zm-3.75-.3h3.45v-3.02h-3.45v3.02Zm-1.11,.3H2.52c-.78,0-1.42-.63-1.42-1.42v-2.21h3.74v3.63h0Zm-3.44-3.33v1.91c0,.61,.5,1.11,1.12,1.11h2.02v-3.02s-3.14,0-3.14,0Zm12.7-1.11h-3.6v-3.91h3.6s0,3.91,0,3.91Zm-3.3-.3h3v-3.31h-3v3.31Zm-1.11,.3H5.66v-3.91h4.05v3.91h-.01Zm-3.75-.3h3.45v-3.31h-3.45v3.31Zm-1.11,.3H1.11v-3.91h3.74v3.91h-.01Zm-3.44-.3h3.14v-3.31H1.41v3.31h-.01ZM14.11,4.88H1.11v-1.02c0-.78,.63-1.42,1.42-1.42h.96v.88c0,.22,.18,.4,.4,.4s.4-.18,.4-.4v-.88h2.99v.88c0,.22,.18,.4,.4,.4s.4-.18,.4-.4v-.88h2.92v.88c0,.22,.18,.4,.4,.4s.4-.18,.4-.4v-.88h.88c.78,0,1.42,.63,1.42,1.42v1.02h.01Zm-12.71-.3H13.81v-.72c0-.61-.5-1.11-1.11-1.11h-.58v.57c0,.39-.32,.71-.7,.71s-.71-.32-.71-.71v-.57h-2.32v.57c0,.39-.32,.71-.71,.71s-.7-.32-.7-.71v-.57h-2.39v.57c0,.39-.32,.71-.7,.71s-.7-.32-.7-.71v-.57h-.66c-.61,0-1.12,.5-1.12,1.11v.72h-.01Z"/></g></g></g></g></svg>