<svg width="44" height="44" viewBox="0 0 44 44" fill="none" xmlns="http://www.w3.org/2000/svg">
<circle cx="22" cy="22" r="22" fill="white"/>
<path d="M16.5524 24L16.1461 23.5934C16.2124 23.5186 16.2649 23.448 16.3293 23.3875C16.6062 23.1262 16.8945 22.874 17.1634 22.6055C18.1229 21.6498 18.1462 20.2218 17.2238 19.2354C17.1136 19.1179 16.9914 19.0104 16.8778 18.8957C15.7795 17.7818 15.7011 16.1074 16.7032 14.9167C16.9017 14.6817 17.1401 14.4751 17.3606 14.2558C17.4482 14.1682 17.5379 14.0827 17.6548 13.9681C17.512 13.879 17.3965 13.8064 17.2803 13.7351C16.4721 13.2388 16.0484 12.5429 16.0146 11.6441C15.8983 8.52686 18.8249 5.81413 22.1897 6.00999C25.3706 6.19444 27.5692 8.06182 27.9717 11.1157C28.1265 12.2873 27.6463 13.2252 26.5261 13.8463C26.4762 13.874 26.4324 13.9104 26.3401 13.9752C26.5446 14.1667 26.7299 14.3484 26.9245 14.5214C27.4199 14.9658 27.7712 15.4914 27.9007 16.1182C28.1152 17.1551 27.8954 18.0995 27.1084 18.8978C26.9876 19.0211 26.8574 19.1371 26.7419 19.2647C25.8626 20.2311 25.8726 21.6234 26.7923 22.5564C27.1297 22.8989 27.5288 23.1902 27.9293 23.5286L27.4604 23.9858C26.3873 23.1162 25.3912 22.243 25.4682 20.7873C25.5107 19.9747 25.8215 19.2703 26.4477 18.6999C27.0314 18.1678 27.3608 17.539 27.3588 16.7769C27.3574 16.2065 27.1822 15.6737 26.7664 15.2529C26.4032 14.8868 25.9736 14.5763 25.5739 14.2415L25.6309 14.166L25.1714 14.1867C25.1654 14.7778 25.1913 15.3746 24.5465 15.7556C24.6527 15.8946 24.7272 16.037 24.844 16.1381C25.7358 16.9144 25.6137 18.3025 24.7948 19.004C24.6978 19.0866 24.6103 19.1784 24.5173 19.2653C23.6693 20.0537 23.672 20.8535 24.5299 21.6455C24.7995 21.8948 25.0765 22.1369 25.3686 22.3997L24.8851 22.8263C24.3692 22.3242 23.7854 21.9069 23.4554 21.2873C23.0669 20.5587 23.227 19.6926 23.8486 19.0595C24.0258 18.8786 24.2204 18.7127 24.4004 18.5339C25.0512 17.8837 24.923 16.9692 24.2589 16.3696C23.8751 16.0234 23.4176 15.834 22.9667 15.6118C22.5423 15.6916 22.2973 15.8959 22.1917 16.319C22.0536 16.8731 21.6485 17.2969 21.183 17.6615C21.1299 17.7035 21.0754 17.7433 20.9419 17.8445C21.2481 18.0988 21.5522 18.3181 21.8138 18.5738C22.9301 19.6656 22.9188 20.9917 21.7919 22.0757C21.3835 22.4673 20.9625 22.8477 20.5455 23.2315C20.4797 23.2921 20.4034 23.3434 20.3184 23.4096L19.914 23.0086C20.0773 22.8512 20.2314 22.7024 20.3868 22.5542C20.7553 22.2046 21.1411 21.8684 21.4904 21.5023C22.1678 20.7916 22.1943 19.8942 21.539 19.1656C21.2593 18.8544 20.8981 18.6051 20.572 18.3267C19.8455 18.9029 19.9737 19.991 20.9313 20.9661L20.5249 21.3627C19.8973 20.9119 19.562 20.3386 19.489 19.6328C19.4166 18.9328 19.6762 18.3252 20.1544 17.7947C19.8894 17.2897 19.8157 16.7769 19.8383 16.2499C19.8476 16.0356 19.7379 15.8732 19.5434 15.7913C18.9882 15.5577 18.8362 15.1339 18.8475 14.619C18.8502 14.4887 18.8475 14.3576 18.8475 14.1988L18.3375 14.1546C17.9251 14.5755 17.4416 14.9729 17.0864 15.4516C16.3752 16.4116 16.4522 17.6451 17.4131 18.5581C17.8832 19.0054 18.2644 19.4939 18.4218 20.1071C18.696 21.174 18.4709 22.1376 17.6687 22.9588C17.3254 23.3106 16.9475 23.6332 16.5524 24ZM21.9713 13.5827C22.9906 13.5827 24.0106 13.5856 25.0299 13.5806C25.2325 13.5799 25.4403 13.5735 25.6363 13.5322C26.7976 13.2851 27.4717 12.3478 27.3468 11.1698C27.0141 8.03401 23.8924 5.96794 20.5973 6.76849C18.3016 7.32614 16.5531 9.3979 16.6374 11.5202C16.6866 12.7566 17.5818 13.5721 18.9126 13.5813C19.9319 13.5885 20.9518 13.5827 21.9713 13.5827ZM23.2103 14.7792C23.2648 14.8825 23.3066 14.9879 23.3717 15.0783C23.5105 15.2692 23.7104 15.3533 23.9601 15.3298C24.1952 15.3077 24.3937 15.2094 24.4455 14.9936C24.506 14.7422 24.5099 14.4794 24.5405 14.2052H19.4969C19.4764 14.6446 19.3813 15.0726 19.8642 15.3234C20.3635 15.3981 20.6438 15.1866 20.7692 14.7849H21.3211C21.6086 15.4986 22.3212 15.5605 22.6831 14.7792H23.2103ZM20.6205 17.3666C21.1112 16.9115 21.5901 16.5455 21.6372 15.9081L21.0502 15.5826L20.4359 15.9052C20.4505 16.3867 20.335 16.8603 20.6205 17.3666Z" fill="#1152A0" stroke="#1152A0" stroke-width="0.55" stroke-linecap="round" stroke-linejoin="round"/>
<path d="M15.65 35H14.14V29.12H12.2V27.86H17.59V29.12H15.65V35ZM24.9757 31.42C24.9757 31.9733 24.9057 32.4767 24.7657 32.93C24.6324 33.3767 24.4257 33.7633 24.1457 34.09C23.8724 34.4167 23.519 34.6667 23.0857 34.84C22.659 35.0133 22.1557 35.1 21.5757 35.1C20.9957 35.1 20.489 35.0133 20.0557 34.84C19.629 34.66 19.2757 34.41 18.9957 34.09C18.7224 33.7633 18.5157 33.3733 18.3757 32.92C18.2424 32.4667 18.1757 31.9633 18.1757 31.41C18.1757 30.67 18.2957 30.0267 18.5357 29.48C18.7824 28.9333 19.1557 28.51 19.6557 28.21C20.1624 27.9033 20.8057 27.75 21.5857 27.75C22.359 27.75 22.9957 27.9033 23.4957 28.21C23.9957 28.51 24.3657 28.9367 24.6057 29.49C24.8524 30.0367 24.9757 30.68 24.9757 31.42ZM19.7657 31.42C19.7657 31.92 19.829 32.35 19.9557 32.71C20.0824 33.07 20.279 33.3467 20.5457 33.54C20.8124 33.7333 21.1557 33.83 21.5757 33.83C22.009 33.83 22.3557 33.7333 22.6157 33.54C22.8824 33.3467 23.0757 33.07 23.1957 32.71C23.3224 32.35 23.3857 31.92 23.3857 31.42C23.3857 30.6667 23.2457 30.0767 22.9657 29.65C22.6857 29.2233 22.2257 29.01 21.5857 29.01C21.159 29.01 20.8124 29.1067 20.5457 29.3C20.279 29.4933 20.0824 29.77 19.9557 30.13C19.829 30.49 19.7657 30.92 19.7657 31.42ZM28.7347 27.86C29.6547 27.86 30.3247 28.06 30.7447 28.46C31.1714 28.8533 31.3847 29.3967 31.3847 30.09C31.3847 30.4033 31.338 30.7033 31.2447 30.99C31.1514 31.27 30.9947 31.5233 30.7747 31.75C30.5614 31.97 30.278 32.1433 29.9247 32.27C29.5714 32.3967 29.1347 32.46 28.6147 32.46H27.9647V35H26.4547V27.86H28.7347ZM28.6547 29.1H27.9647V31.22H28.4647C28.7514 31.22 28.998 31.1833 29.2047 31.11C29.4114 31.0367 29.5714 30.92 29.6847 30.76C29.798 30.6 29.8547 30.3933 29.8547 30.14C29.8547 29.7867 29.758 29.5267 29.5647 29.36C29.3714 29.1867 29.068 29.1 28.6547 29.1Z" fill="#1152A0"/>
</svg>
