<?xml version="1.0" encoding="UTF-8"?><svg id="_圖層_1" xmlns="http://www.w3.org/2000/svg" viewBox="0 0 13.6 14"><defs><style>.cls-1{fill:#1152a0;}</style></defs><path class="cls-1" d="M3.9,.1c.2,0,.4,.1,.5,.2,.2,.3,.2,.9-.5,1h-1.6c-.5,.1-.7,.3-.7,.7V12.1c0,.4,.2,.6,.7,.6H11.3c.5,0,.7-.2,.7-.6V1.9c0-.4-.3-.6-.7-.6h-1.4c-.4,0-.7-.3-.8-.6,0-.4,.1-.5,.6-.7h2.6c.2,0,.4,.1,.6,.2,.3,.2,.5,.4,.7,.7V13.2c-.2,.4-.5,.7-1.1,.8H1.1q-.1,0-.2-.1c-.5-.1-.8-.4-.9-.8V1c.1-.2,.2-.4,.4-.6C.6,.2,1,.1,1.3,.1H3.9Z"/><path class="cls-1" d="M7.7,.1c.2,0,.4,.1,.5,.3,.2,.4,.1,1-.7,1h-1.5c-.4,0-.7-.2-.7-.4-.1-.4,0-.7,.3-.8,.1,0,.2-.1,.3-.1h1.8Z"/><path class="cls-1" d="M6.8,4.6H3.7c-.3,0-.6-.1-.7-.4-.1-.3,0-.6,.2-.7,.2-.2,.4-.2,.6-.2h6.1c.4,0,.6,.1,.7,.4,.1,.3,0,.6-.2,.7s-.3,.1-.5,.1c-1.1,.1-2.1,.1-3.1,.1h0Z"/><path class="cls-1" d="M6.8,10.6H3.7c-.4,0-.6-.2-.7-.5-.1-.3,.1-.6,.4-.7,.1,0,.2-.1,.3-.1h6.2c.5,0,.8,.3,.7,.7-.1,.3-.3,.5-.8,.5-1,.1-2,.1-3,.1Z"/><path class="cls-1" d="M6.8,6.4h3.1c.4,0,.6,.1,.7,.4,.1,.3,0,.6-.3,.8-.2,.1-.3,.1-.5,.1H3.7c-.3,0-.6-.2-.7-.4-.1-.3,0-.6,.3-.8,.1-.1,.3-.1,.4-.1h3.1Z"/></svg>