<?xml version="1.0" encoding="utf-8"?>
<!-- Generator: Adobe Illustrator 26.5.0, SVG Export Plug-In . SVG Version: 6.00 Build 0)  -->
<svg version="1.1" id="圖層_1" xmlns="http://www.w3.org/2000/svg" xmlns:xlink="http://www.w3.org/1999/xlink" x="0px" y="0px"
	 viewBox="0 0 32 32" style="enable-background:new 0 0 32 32;" xml:space="preserve">
<style type="text/css">
	.st0{fill:#4AE5F0;}
	.st1{fill:none;stroke:#4AE5F0;stroke-width:1.5;}
</style>
<path class="st0" d="M7.7,9C7.3,9,7,9.3,7,9.7c0,0.4,0.3,0.7,0.7,0.7h1.5l1.8,9.9c0.1,0.4,0.4,0.6,0.7,0.6h9.7
	c0.4,0,0.7-0.3,0.7-0.7c0-0.4-0.3-0.7-0.7-0.7h-9.1L12.1,18h9.4c0.4,0,0.8-0.3,0.9-0.7l1.6-6c0.2-0.6-0.3-1.3-0.9-1.3H10.6l-0.1-0.4
	C10.5,9.2,10.2,9,9.8,9H7.7z M12.2,25c0.8,0,1.4-0.7,1.4-1.5S13,22,12.2,22c-0.8,0-1.4,0.7-1.4,1.5S11.4,25,12.2,25z M22.2,23.5
	c0-0.8-0.6-1.5-1.4-1.5c-0.8,0-1.4,0.7-1.4,1.5S20,25,20.7,25C21.5,25,22.2,24.3,22.2,23.5z"/>
<circle class="st1" cx="16" cy="16" r="15.2"/>
</svg>
