<svg width="35" height="30" viewBox="0 0 35 30" fill="none" xmlns="http://www.w3.org/2000/svg">
<path d="M32.7704 10.0289C32.7704 5.5985 29.1662 1.99359 24.7367 1.99359C21.4857 1.99359 18.6819 3.93427 17.4178 6.71679C16.1548 3.93427 13.3504 1.99359 10.101 1.99359C5.6697 1.99359 2.06641 5.5985 2.06641 10.0289C2.06641 10.9634 2.22682 11.8595 2.52199 12.6951C2.85807 13.6457 3.36728 14.5144 4.0131 15.2635C4.28839 15.5839 4.58749 15.8817 4.91017 16.1551L17.1647 28.3277C17.2401 28.4031 17.3383 28.4409 17.4375 28.4409C17.5375 28.4409 17.6365 28.4031 17.7125 28.3277L30.422 15.7004L30.421 15.6986C31.2448 14.8732 31.8909 13.8711 32.2954 12.7527C32.6026 11.902 32.7704 10.9844 32.7704 10.0289Z" stroke="#FF6C6C" stroke-width="3"/>
</svg>
