<?xml version="1.0" encoding="utf-8"?>
<!-- Generator: Adobe Illustrator 26.5.0, SVG Export Plug-In . SVG Version: 6.00 Build 0)  -->
<svg version="1.1" id="_圖層_2" xmlns="http://www.w3.org/2000/svg" xmlns:xlink="http://www.w3.org/1999/xlink" x="0px" y="0px"
	 viewBox="0 0 34.7 30.5" style="enable-background:new 0 0 34.7 30.5;" xml:space="preserve">
<style type="text/css">
	.st0{fill:#8A8A8A;}
</style>
<g id="_圖層_1-2">
	<path class="st0" d="M17.4,30.5c-0.6,0-1.2-0.2-1.7-0.7L3.5,17.6c-0.4-0.3-0.7-0.7-1.1-1.1c-0.8-0.9-1.4-2-1.9-3.2
		C0.2,12.3,0,11.2,0,10C0,4.5,4.5,0,10,0c2.8,0,5.4,1.2,7.3,3.2c1.9-2,4.5-3.2,7.3-3.2c5.5,0,10,4.5,10,10c0,1.2-0.2,2.3-0.6,3.4
		c-0.5,1.4-1.3,2.6-2.3,3.7L19.1,29.8C18.6,30.2,18,30.5,17.4,30.5L17.4,30.5z M10,4c-3.3,0-6,2.7-6,6c0,0.7,0.1,1.4,0.3,2
		C4.6,12.8,5,13.4,5.5,14c0.2,0.2,0.4,0.5,0.7,0.7l0.1,0.1l11.1,11l11.6-11.5c0.6-0.6,1.1-1.4,1.4-2.2c0.2-0.6,0.4-1.3,0.4-2
		c0-3.3-2.7-6-6-6c-2.4,0-4.5,1.4-5.5,3.6l-1.8,4l-1.8-4C14.5,5.4,12.4,4,10,4z"/>
</g>
</svg>
