<svg xmlns="http://www.w3.org/2000/svg" width="77.181" height="58.793" viewBox="0 0 77.181 58.793">
  <path id="Path_312" data-name="Path 312" d="M812.049,624.442q-.088-.693-.142-1.392h0m.208,1.874c-.014-.1-.029-.2-.042-.3l0-.022,0-.039,0-.022,0-.039,0-.023,0-.037q-.088-.693-.142-1.392a.9.9,0,0,1,1.27-.919,25.991,25.991,0,0,0,12.212,2.4l.194-.01h0l.192-.012h0c.063,0,.127-.008.19-.013h0l.188-.014h0l.187-.015h.008l.186-.017c.12-.011.241-.023.362-.036l.023,0,.13-.015.066-.006.11-.014.084-.01.095-.012.1-.012.134-.019.05-.006.148-.021.047-.007.163-.023.025,0,.138-.023.058-.008.137-.023.052-.008.153-.027.037-.006.148-.027.044-.007.134-.026.059-.011.126-.025.064-.013.147-.03.038-.007.16-.034.03-.007c.046-.009.092-.018.138-.03l.056-.012c.054-.011.106-.024.16-.037l.023,0,.157-.038.036-.009c.052-.011.106-.025.157-.039l.029-.006.155-.039.035-.009.152-.038.035-.01.161-.043.025-.008c.052-.013.1-.027.154-.042l.037-.01.161-.045.022-.007.161-.046.028-.008.161-.048.025-.007.168-.052.015,0,.182-.057h0l.174-.056.017-.006.17-.055.014,0,.178-.061,0,0,.169-.058.021-.007c.12-.043.239-.085.357-.129l0,0,.174-.064.013-.006c.058-.021.116-.043.172-.065l.009,0,.177-.069,0,0,.176-.07.006,0c.12-.049.24-.1.36-.149h0c.239-.1.477-.205.713-.312l.008,0,.173-.081h0q.8-.374,1.581-.8v0q.259-.145.516-.293a30.978,30.978,0,0,0,9.691-21.828,16.158,16.158,0,0,1,3.8-9.888,17.256,17.256,0,0,1,7.4-5.241,6.59,6.59,0,0,0-1.62-.672.492.492,0,0,1-.049-.015,8.039,8.039,0,0,0-4.146.076,8.327,8.327,0,0,0-3.644,2.087.4.4,0,0,1-.038.037,6.4,6.4,0,0,0-1.654,2.834l-.017.056-.06.226-.071.269a.895.895,0,0,1-1.686.158,9.994,9.994,0,0,0-5.028-5.189,7.294,7.294,0,0,0-5.973.132,8.407,8.407,0,0,0-3.227,2.738,9.242,9.242,0,0,1,7.247.522,8.722,8.722,0,0,1,3.523,3.736A12.645,12.645,0,0,1,843,596.424a17.258,17.258,0,0,1-6.708,13.889c-9.838,7.816-17.849,2.293-25.664-3.1-7.43-5.122-14.669-10.114-23.072-1.742l.164-.01h.018l.159-.007h.019q.333-.012.659-.006h.023c.051,0,.1,0,.151,0h.026c.216.008.431.021.643.04h.018l.142.014.035,0,.141.016.027,0c.2.026.409.057.611.094l.034.006.132.026.039.008.133.027.019,0q.217.047.432.1l.035.01.122.033.051.015.118.035.041.012c.135.041.268.085.4.132l.037.012.115.042.051.019.111.042.057.022.105.042.059.025c.068.028.136.056.2.086l.049.022.1.043.067.031.095.045.068.032c.03.016.061.031.092.046l.072.037.09.046.066.035.169.092.07.039.087.05.074.043.084.049.075.046.083.051.082.051.112.072.108.07.068.046.089.061.069.048c.03.02.059.042.089.063l.067.048c.031.022.061.044.091.067l.063.047.144.11.052.041.1.081.059.047.093.076.059.05.1.082.053.045c.043.037.084.073.126.111l.023.02.144.131.047.044c.034.031.066.061.1.092l.056.053.093.089.054.053.1.1.042.042.14.144.036.039c.036.037.071.076.108.113l.046.051c.033.035.064.069.1.105l.05.055.1.11.041.047.139.162.142.17h0l.141.173h0l.14.176h0c.047.06.092.119.138.18h0l.137.182h0l.136.186v0c.045.062.09.125.134.189h0c.045.063.089.128.133.192v0c.044.064.088.129.132.2h0l.13.2v0c.043.067.086.134.129.2v0l.128.206v0c.043.069.084.138.126.208l0,0,.125.212.1.181.021.035,0,0c.041.072.082.145.122.218q.177.318.348.649l.017.032,0,0c.039.076.079.154.117.231a47.073,47.073,0,0,1,3.84,12.477l0,.009q.1.561.2,1.135a14.449,14.449,0,0,0,13.764,10.479,28.367,28.367,0,0,1-3.763-6.8.9.9,0,0,1-.321-.785c0-.022.006-.045.009-.066l-.035-.1,0,0-.016-.047,0-.011-.013-.039-.006-.019-.011-.033-.017-.05-.011-.034-.006-.017-.014-.042,0-.01-.016-.047v0l-.017-.051v0l-.015-.046-.065-.2-.014-.043,0-.009-.016-.051h0l-.016-.052-.015-.05,0-.015-.011-.036-.007-.022-.009-.03-.015-.051-.011-.037,0-.015-.014-.044v-.006l-.031-.1v-.009l-.013-.042,0-.016-.01-.036-.006-.023-.008-.027-.009-.031-.005-.02-.015-.052-.013-.047,0-.006-.014-.051v0l-.014-.05,0-.009-.011-.042,0-.018-.01-.035-.007-.025-.007-.027-.009-.031,0-.019-.011-.039,0-.011-.013-.048v0l-.014-.052v0l-.012-.048-.027-.1-.007-.027-.006-.026-.008-.033,0-.018-.01-.042,0-.01-.012-.049,0,0-.012-.051,0,0-.011-.047,0-.012-.01-.039,0-.02-.008-.032-.007-.028-.006-.023-.008-.036,0-.016-.01-.043v-.009l-.012-.051h0l-.012-.053v-.006l-.01-.047,0-.013-.008-.039,0-.022-.007-.031-.007-.029,0-.023-.009-.037,0-.015-.01-.044,0-.009-.012-.051-.012-.059v0l-.013-.059h0l-.011-.059,0,0-.012-.058v0l-.012-.058v0l-.012-.057v0l-.011-.056v0l-.011-.055v-.006l-.01-.054,0-.006-.01-.054,0-.006-.01-.054v-.006l-.01-.054v-.007l-.01-.052,0-.008-.01-.051v-.008l-.01-.051,0-.009-.009-.051,0-.01-.01-.051,0-.01-.009-.05,0-.01-.009-.049,0-.011-.009-.049,0-.01-.009-.049,0-.013-.008-.047-.009-.051v-.009l0-.013-.008-.047,0-.014-.007-.046,0-.014-.007-.046,0-.016-.007-.044,0-.016-.007-.044-.018-.121,0-.017-.007-.043,0-.018-.007-.043,0-.019Zm19.215.486c-.331.088-.661.169-.993.245h0c-.207.046-.415.092-.622.135l-.025,0-.161.031-.028.006-.158.03,0,0-.092.016-.091.018-.092.017-.01,0-.146.026-.054.009-.119.021-.106.018-.094.015-.117.018-.08.013-.117.018-.1.015-.1.014-.095.014-.131.017-.068.01-.137.018-.059.008-.157.018-.038,0-.166.019-.055.006c-.054.006-.108.012-.161.016l-.039,0-.166.017-.035,0c-.057.006-.114.012-.172.015l-.03,0-.192.015H826.3l-.193.015-.022,0-.186.012h-.018l-.192.01-.01,0-.2.01a27.787,27.787,0,0,1-11.63-1.947q.144,1.078.374,2.137l.01.046,0,.01.009.039,0,.017.006.031.006.026,0,.021.007.034,0,.013.01.043,0,0,.01.047,0,0,.01.043,0,.013.008.034.006.022.006.025.007.03,0,.016.01.039,0,.009.011.046h0l.011.047,0,.009.01.039.011.046.006.027,0,.02.009.035,0,.012.011.043v0l.012.046v.006l.011.043,0,.014.008.032.006.022.006.024.009.03,0,.016.01.039,0,.007.012.047v0l.012.045,0,.01.01.036,0,.018.008.028.007.027,0,.02.01.036,0,.01.012.044,0,0,.012.047,0,.006.011.04,0,.014.009.033.006.023.007.023.009.031,0,.015,0,.012.01.035.014.046v0l.012.044,0,.01.011.035.006.019.007.027.009.027.006.019.01.035,0,.01.026.083,0,.009,0,.006.012.039,0,.014.01.031.007.024.007.022.01.033,0,.013.013.041,0,.006.014.046v0l.014.042,0,.012.011.035.007.019.008.026.014.045.012.036,0,.01.014.043v0l.015.046,0,.006.014.039,0,.015.01.031.008.023.007.022v0l.015.042.014.041,0,.006a31.02,31.02,0,0,0,16.279-4.067Zm-33.451-11.237c-.016-.032-.034-.064-.051-.1l-.059-.111-.051-.092-.059-.109-.057-.1-.053-.1c-.021-.035-.041-.071-.061-.106l-.053-.092-.063-.108c-.016-.029-.033-.057-.05-.085l0,0c-.037-.062-.073-.123-.111-.184h0l-.042-.068-.075-.123-.047-.072c-.022-.037-.047-.074-.07-.111l-.055-.084c-.021-.033-.042-.065-.063-.1l-.058-.086c-.02-.031-.041-.062-.062-.093l-.057-.084-.064-.092L796.56,612l-.064-.089-.059-.083-.063-.088-.057-.077-.071-.1c-.018-.023-.036-.046-.052-.069l-.071-.092c-.018-.025-.037-.049-.056-.072l-.074-.094-.051-.063-.092-.114-.035-.042-.129-.154c-.041-.047-.081-.095-.123-.141l-.042-.047-.083-.093-.047-.052-.076-.084-.054-.058-.073-.077-.054-.055-.073-.076-.055-.056-.072-.072-.056-.055-.073-.071-.058-.055c-.023-.021-.046-.043-.069-.064l-.064-.059-.069-.063-.059-.053-.08-.069-.052-.046c-.027-.024-.055-.048-.084-.071l-.051-.043-.084-.069-.052-.042,0,0c-.043-.034-.086-.068-.13-.1v0l-.052-.039-.083-.063-.066-.049-.072-.053-.067-.047-.071-.05-.069-.047-.07-.048-.071-.047-.068-.045-.075-.047-.063-.041-.077-.047-.065-.039-.077-.047-.064-.037-.079-.046-.063-.034-.082-.045-.06-.032-.085-.044-.053-.027-.094-.047-.014-.007c-.131-.064-.262-.124-.4-.181l-.022-.01-.111-.046-.038-.016c-.036-.015-.072-.029-.109-.043l-.04-.016-.109-.04-.042-.016-.105-.037-.049-.017-.1-.034-.052-.016-.105-.033-.044-.014-.111-.033-.039-.011-.116-.031-.033-.009-.124-.032-.019,0a9.017,9.017,0,0,0-.9-.173l-.014,0c-.047-.007-.093-.013-.141-.018l-.021,0-.134-.015-.03,0-.134-.013h-.026c-.045-.005-.091-.008-.136-.011l-.029,0-.137-.009h-.026l-.143-.006h-.013a10.84,10.84,0,0,0-1.494.054h-.007l-.158.018-.019,0-.158.02-.014,0-.159.022-.019,0-.158.024-.015,0-.166.027a30.852,30.852,0,0,0,15.353,18.55c-.02-.1-.039-.2-.059-.3l-.007-.035c-.019-.094-.037-.187-.056-.281l-.01-.05c-.018-.09-.037-.182-.055-.273l-.011-.052c-.019-.092-.038-.183-.056-.273l-.01-.045-.058-.27-.011-.054-.06-.272,0-.023q-.271-1.23-.573-2.369l0-.01c-.023-.088-.047-.177-.071-.264l-.008-.03-.064-.236-.019-.063c-.02-.075-.042-.151-.063-.225l-.015-.055-.065-.227-.016-.057c-.022-.073-.043-.146-.064-.219l-.019-.064c-.021-.072-.043-.142-.063-.213l-.019-.064c-.022-.071-.043-.144-.066-.215l-.011-.035q-.2-.648-.412-1.264l0-.011-.075-.214-.017-.047q-.031-.092-.065-.183l-.029-.081c-.02-.056-.041-.112-.061-.167l-.031-.086-.061-.164-.033-.087c-.02-.054-.04-.108-.061-.162l-.033-.087c-.021-.051-.041-.1-.062-.157l-.036-.09c-.02-.051-.04-.1-.06-.151l-.035-.088-.064-.153-.032-.078-.066-.16-.027-.064-.072-.17-.008-.019c-.086-.2-.174-.395-.26-.587l-.03-.064-.068-.145-.035-.076-.063-.133-.044-.092c-.02-.042-.04-.083-.061-.125l-.044-.09-.06-.122-.047-.094-.059-.116-.05-.1Zm17.867,17.107a26.242,26.242,0,0,0,4.192,6.759.9.9,0,0,1-.568,1.5A16.249,16.249,0,0,1,802.094,628.2,32.612,32.612,0,0,1,784.307,607a.216.216,0,0,1-.009-.031.894.894,0,0,1,.207-.817c10.169-12.105,18.535-6.338,27.134-.409,7.276,5.016,14.733,10.157,23.538,3.164a15.451,15.451,0,0,0,6.023-12.427,10.862,10.862,0,0,0-1.118-4.6,6.948,6.948,0,0,0-2.788-2.98c-1.964-1.083-4.658-1.139-7.962.435a.885.885,0,0,1-.737.021.9.9,0,0,1-.483-1.172,10.763,10.763,0,0,1,5.266-5.736,9.077,9.077,0,0,1,7.424-.164,11.058,11.058,0,0,1,4.957,4.282,8.457,8.457,0,0,1,1.6-2.244l.04-.043a10.121,10.121,0,0,1,4.437-2.546,9.823,9.823,0,0,1,5.078-.082c.02,0,.04.009.059.014a8.2,8.2,0,0,1,3.712,2.128h0a.9.9,0,0,1-.425,1.506,15.265,15.265,0,0,0-8.15,5.153,14.38,14.38,0,0,0-3.389,8.782,32.759,32.759,0,0,1-10.3,23.138c-.021.021-.042.04-.063.06a32.757,32.757,0,0,1-22.612,8.849Z" transform="translate(-784.017 -581.099)" fill="#bebebe" stroke="#bebebe" stroke-width="0.5"/>
</svg>
