<svg width="28" height="27" viewBox="0 0 28 27" fill="none" xmlns="http://www.w3.org/2000/svg">
<path d="M17.8616 9.77649C21.129 12.9305 21.0842 17.9871 17.8813 21.0927C17.8753 21.0991 17.8682 21.1059 17.8616 21.1122L14.1866 24.656C10.9453 27.7815 5.67183 27.7811 2.431 24.656C-0.810332 21.531 -0.810332 16.4453 2.431 13.3202L4.46023 11.3635C4.99836 10.8446 5.92509 11.1894 5.95287 11.9228C5.98831 12.8573 6.16211 13.7963 6.4828 14.703C6.5914 15.01 6.5138 15.3496 6.27591 15.579L5.56022 16.2691C4.02754 17.7471 3.97947 20.1535 5.49705 21.6459C7.02962 23.153 9.54863 23.162 11.093 21.6728L14.768 18.1296C16.3097 16.643 16.3032 14.2401 14.768 12.7597C14.5656 12.5649 14.3617 12.4135 14.2024 12.3078C13.974 12.1565 13.8331 11.91 13.8225 11.643C13.8009 11.0858 14.0056 10.5115 14.4623 10.0712L15.6136 8.9609C15.9156 8.66975 16.3892 8.634 16.7393 8.86961C17.1403 9.13959 17.5158 9.44305 17.8616 9.77648L17.8616 9.77649ZM25.569 2.34401C22.3282 -0.781126 17.0547 -0.781548 13.8134 2.34401L10.1384 5.88775C10.1318 5.89408 10.1247 5.90094 10.1187 5.90727C6.91586 9.01289 6.87097 14.0695 10.1384 17.2235C10.4842 17.5569 10.8597 17.8604 11.2606 18.1303C11.6107 18.3659 12.0844 18.3301 12.3863 18.039L13.5377 16.9287C13.9943 16.4884 14.1991 15.9142 14.1774 15.3569C14.1668 15.0899 14.026 14.8434 13.7975 14.6922C13.6383 14.5864 13.4344 14.4351 13.232 14.2403C11.6968 12.7599 11.6903 10.357 13.232 8.87035L16.907 5.32714C18.4513 3.83797 20.9703 3.84694 22.5029 5.35403C24.0205 6.84641 23.9725 9.25289 22.4397 10.7308L21.724 11.421C21.4862 11.6503 21.4086 11.99 21.5172 12.297C21.8378 13.2037 22.0116 14.1426 22.0471 15.0772C22.0749 15.8105 23.0016 16.1554 23.5397 15.6365L25.569 13.6797C28.8103 10.5547 28.8103 5.46904 25.569 2.34401L25.569 2.34401Z" fill="#757575"/>
</svg>
