<svg width="182" height="40" viewBox="0 0 182 40" fill="none" xmlns="http://www.w3.org/2000/svg">
<path d="M64.9137 33.5702C63.5142 35.3318 61.6767 36.2121 59.4014 36.2121C57.1263 36.2121 55.2893 35.3318 53.8898 33.5702C52.4895 31.809 51.7904 29.431 51.7904 26.4352C51.7904 23.4392 52.4863 21.0859 53.8785 19.3736C55.2707 17.6617 57.1114 16.8059 59.4014 16.8059C61.6921 16.8059 63.5328 17.6617 64.925 19.3736C66.3172 21.0859 67.0131 23.4392 67.0131 26.4352C67.0131 29.431 66.3135 31.809 64.9137 33.5702ZM56.3929 31.2004C57.1413 32.3851 58.148 32.9776 59.4127 32.9776C60.6777 32.9776 61.684 32.3851 62.4328 31.2004C63.1812 30.0148 63.5554 28.4269 63.5554 26.4352C63.5554 24.4435 63.1812 22.8757 62.4328 21.7313C61.684 20.5878 60.6737 20.0154 59.4014 20.0154C58.1294 20.0154 57.1227 20.5878 56.3816 21.7313C55.6413 22.8757 55.2707 24.4435 55.2707 26.4352C55.2707 28.4269 55.6445 30.0148 56.3929 31.2004Z" fill="white"/>
<path d="M77.274 36.2121C76.1962 36.2121 75.1895 36.0022 74.2543 35.5824C73.3186 35.163 72.4951 34.5539 71.7843 33.7554C71.0735 32.957 70.512 31.9451 70.1002 30.7188C69.6885 29.4925 69.483 28.1135 69.483 26.5829C69.483 25.0853 69.6925 23.7154 70.1116 22.4721C70.5309 21.2297 71.1033 20.1967 71.8291 19.3736C72.5549 18.5509 73.3973 17.9168 74.3552 17.4724C75.3126 17.0284 76.3311 16.8059 77.4088 16.8059C78.8454 16.8059 80.1707 17.2915 81.3828 18.2624C81.7122 18.5094 81.8769 18.8719 81.8769 19.349C81.8769 19.7111 81.7647 20.0404 81.5403 20.3364L81.4503 20.4599C81.2254 20.7565 80.9263 20.9209 80.5525 20.954H80.4173C80.1033 20.954 79.8186 20.8635 79.5639 20.6823C78.9056 20.2378 78.2093 20.0154 77.4763 20.0154C76.1591 20.0154 75.0773 20.5959 74.2317 21.756C73.386 22.9165 72.9634 24.4848 72.9634 26.4598C72.9634 28.4841 73.3634 30.0765 74.1642 31.237C74.9647 32.3976 76.0465 32.9776 77.4088 32.9776C78.307 32.9776 79.145 32.6814 79.9232 32.0888C80.1779 31.8914 80.4697 31.793 80.7991 31.793H80.8892C81.248 31.809 81.5403 31.9653 81.7647 32.2619L81.8547 32.3604C82.0933 32.6567 82.214 33.0023 82.214 33.3974C82.214 33.8584 82.0638 34.2205 81.7647 34.4837C80.5074 35.6361 79.0102 36.2121 77.274 36.2121Z" fill="white"/>
<path d="M86.749 35.8666C86.3898 35.8666 86.079 35.7225 85.8173 35.4342C85.555 35.1464 85.4242 34.8049 85.4242 34.4098V18.6083C85.4242 18.2135 85.555 17.8716 85.8173 17.5838C86.079 17.2956 86.3898 17.1515 86.749 17.1515H94.5404C94.9141 17.1515 95.2282 17.2956 95.4833 17.5838C95.7372 17.8716 95.8644 18.2135 95.8644 18.6083V18.8057C95.8644 19.2174 95.7372 19.5629 95.4833 19.8426C95.2282 20.1228 94.9141 20.2625 94.5404 20.2625H88.9945C88.8892 20.2625 88.8371 20.3282 88.8371 20.4599V24.4104C88.8371 24.5254 88.8892 24.5832 88.9945 24.5832H93.4844C93.8436 24.5832 94.1544 24.7273 94.4168 25.0151C94.6784 25.3033 94.8096 25.6448 94.8096 26.04V26.2619C94.8096 26.6737 94.6784 27.0193 94.4168 27.2989C94.1544 27.5791 93.8436 27.7188 93.4844 27.7188H88.9945C88.8892 27.7188 88.8371 27.7846 88.8371 27.9162V32.5578C88.8371 32.6732 88.8892 32.731 88.9945 32.731H94.787C95.1608 32.731 95.4753 32.8751 95.7299 33.1629C95.9846 33.4511 96.1118 33.7922 96.1118 34.1873V34.4098C96.1118 34.8049 95.9846 35.1464 95.7299 35.4342C95.4753 35.7225 95.1608 35.8666 94.787 35.8666H86.749Z" fill="white"/>
<path d="M115.12 35.8877C114.761 35.8877 114.45 35.7435 114.188 35.4553C113.926 35.1675 113.795 34.826 113.795 34.4308V18.6293C113.795 18.2346 113.926 17.8927 114.188 17.6049C114.45 17.3167 114.761 17.1725 115.12 17.1725H115.951C116.355 17.1725 116.732 17.288 117.085 17.5185C117.436 17.749 117.709 18.0614 117.904 18.4566L122.215 27.1473L123.899 31.1224C123.913 31.1717 123.94 31.1963 123.978 31.1963C124.015 31.1963 124.033 31.1717 124.033 31.1224C123.734 28.0938 123.585 25.9294 123.585 24.6289V18.6293C123.585 18.2346 123.716 17.8927 123.978 17.6049C124.239 17.3167 124.55 17.1725 124.909 17.1725H125.493C125.852 17.1725 126.163 17.3167 126.425 17.6049C126.687 17.8927 126.818 18.2346 126.818 18.6293V34.4308C126.818 34.826 126.687 35.1675 126.425 35.4553C126.163 35.7435 125.852 35.8877 125.493 35.8877H124.684C124.281 35.8877 123.902 35.7726 123.551 35.5417C123.199 35.3112 122.926 34.9984 122.731 34.6036L118.443 25.8636L116.736 21.9131C116.721 21.8804 116.695 21.8634 116.658 21.8634C116.62 21.8634 116.602 21.8804 116.602 21.9131C116.632 22.16 116.676 22.6622 116.736 23.4191C116.796 24.1764 116.841 24.7564 116.871 25.1597C116.901 25.5633 116.935 26.0776 116.972 26.7029C117.01 27.3285 117.028 27.888 117.028 28.3816V34.4308C117.028 34.826 116.897 35.1675 116.636 35.4553C116.373 35.7435 116.063 35.8877 115.704 35.8877H115.12Z" fill="white"/>
<path d="M138.009 35.8666C137.649 35.8666 137.338 35.7225 137.077 35.4342C136.814 35.1464 136.684 34.8049 136.684 34.4098V18.6083C136.684 18.2135 136.814 17.8716 137.077 17.5838C137.338 17.2956 137.649 17.1515 138.009 17.1515H138.772C139.131 17.1515 139.441 17.2956 139.703 17.5838C139.965 17.8716 140.097 18.2135 140.097 18.6083V32.5578C140.097 32.6732 140.149 32.731 140.254 32.731H145.665C146.024 32.731 146.335 32.8751 146.597 33.1629C146.858 33.4511 146.99 33.7922 146.99 34.1873V34.4098C146.99 34.8049 146.858 35.1464 146.597 35.4342C146.335 35.7225 146.024 35.8666 145.665 35.8666H138.009Z" fill="white"/>
<path d="M151.256 35.8666C150.896 35.8666 150.586 35.7225 150.324 35.4342C150.062 35.1464 149.931 34.8049 149.931 34.4098V18.6083C149.931 18.2135 150.062 17.8716 150.324 17.5838C150.586 17.2956 150.896 17.1515 151.256 17.1515H152.019C152.378 17.1515 152.689 17.2956 152.951 17.5838C153.213 17.8716 153.344 18.2135 153.344 18.6083V34.4098C153.344 34.8049 153.213 35.1464 152.951 35.4342C152.689 35.7225 152.378 35.8666 152.019 35.8666H151.256Z" fill="white"/>
<path d="M158.822 35.8666C158.463 35.8666 158.152 35.7225 157.891 35.4342C157.628 35.1464 157.497 34.8049 157.497 34.4098V18.6083C157.497 18.2135 157.628 17.8716 157.891 17.5838C158.152 17.2956 158.463 17.1515 158.822 17.1515H166.658C167.032 17.1515 167.347 17.2956 167.601 17.5838C167.856 17.8716 167.983 18.2135 167.983 18.6083V18.8057C167.983 19.2174 167.856 19.5629 167.601 19.8426C167.347 20.1228 167.032 20.2625 166.658 20.2625H161.067C160.962 20.2625 160.91 20.3282 160.91 20.4599V24.9537C160.91 25.0853 160.962 25.1511 161.067 25.1511H165.625C165.985 25.1511 166.295 25.2912 166.557 25.5705C166.819 25.8507 166.95 26.1966 166.95 26.6075V26.83C166.95 27.2251 166.819 27.567 166.557 27.8549C166.295 28.1427 165.985 28.2868 165.625 28.2868H161.067C160.962 28.2868 160.91 28.3444 160.91 28.4595V34.4098C160.91 34.8049 160.779 35.1464 160.517 35.4342C160.255 35.7225 159.945 35.8666 159.586 35.8666H158.822Z" fill="white"/>
<path d="M172.272 35.8666C171.912 35.8666 171.601 35.7225 171.339 35.4342C171.077 35.1464 170.946 34.8049 170.946 34.4098V18.6083C170.946 18.2135 171.077 17.8716 171.339 17.5838C171.601 17.2956 171.912 17.1515 172.272 17.1515H180.063C180.436 17.1515 180.75 17.2956 181.005 17.5838C181.259 17.8716 181.387 18.2135 181.387 18.6083V18.8057C181.387 19.2174 181.259 19.5629 181.005 19.8426C180.75 20.1228 180.436 20.2625 180.063 20.2625H174.517C174.411 20.2625 174.359 20.3282 174.359 20.4599V24.4104C174.359 24.5254 174.411 24.5832 174.517 24.5832H179.007C179.366 24.5832 179.677 24.7273 179.939 25.0151C180.201 25.3033 180.332 25.6448 180.332 26.04V26.2619C180.332 26.6737 180.201 27.0193 179.939 27.2989C179.677 27.5791 179.366 27.7188 179.007 27.7188H174.517C174.411 27.7188 174.359 27.7846 174.359 27.9162V32.5578C174.359 32.6732 174.411 32.731 174.517 32.731H180.309C180.683 32.731 180.997 32.8751 181.252 33.1629C181.507 33.4511 181.634 33.7922 181.634 34.1873V34.4098C181.634 34.8049 181.507 35.1464 181.252 35.4342C180.997 35.7225 180.683 35.8666 180.309 35.8666H172.272Z" fill="white"/>
<path d="M111.896 34.4836L107.226 18.5344C107.106 18.1231 106.885 17.7897 106.563 17.5342C106.242 17.279 105.885 17.1515 105.497 17.1515H104.149C103.745 17.1515 103.386 17.279 103.072 17.5342C102.758 17.7897 102.54 18.1231 102.421 18.5344L97.7732 34.4836C97.7425 34.5991 97.728 34.7145 97.728 34.8296C97.728 35.0435 97.7877 35.2413 97.908 35.4217C98.1018 35.7184 98.3646 35.8666 98.6936 35.8666H99.5021C99.8907 35.8666 100.239 35.735 100.546 35.4714C100.852 35.2082 101.058 34.8708 101.164 34.459C101.164 34.459 104.254 22.0486 104.689 20.0404C104.703 20.0074 104.726 19.9908 104.756 19.9908C104.786 19.9908 104.8 20.0074 104.8 20.0404C104.905 20.4352 108.371 34.459 108.371 34.459C108.475 34.8708 108.685 35.2082 108.999 35.4714C109.314 35.735 109.665 35.8666 110.055 35.8666H110.975C111.289 35.8666 111.544 35.7184 111.738 35.4217C111.873 35.2413 111.94 35.0435 111.94 34.8296C111.94 34.7145 111.926 34.5991 111.896 34.4836Z" fill="white"/>
<path d="M35.2199 5.90693H35.2015C33.594 5.89741 32.2872 4.56222 32.2882 2.93023C32.2893 2.10518 32.5834 1.35865 33.117 0.828092C33.6582 0.289617 34.4191 -0.0109544 35.2683 0.000305367C36.0818 0.00439106 36.829 0.31011 37.3729 0.861485C37.9107 1.40639 38.2031 2.14581 38.1962 2.94323C38.1822 4.60829 36.8761 5.90693 35.2199 5.90693ZM35.2499 1.24126C34.734 1.24126 34.2993 1.40266 33.9919 1.70803C33.6899 2.00825 33.5299 2.43139 33.5292 2.93126C33.5285 3.8986 34.2662 4.66053 35.2086 4.66597H35.2199C36.2015 4.66597 36.9471 3.92279 36.9556 2.93264C36.9593 2.46758 36.7939 2.04141 36.4895 1.73293C36.179 1.41836 35.743 1.24364 35.2619 1.24126H35.2499Z" fill="white"/>
<path d="M37.3475 11.0042C37.3526 8.68091 39.1852 6.86023 41.5215 6.85753C43.8298 6.85509 45.6951 8.72186 45.6856 11.0247C45.6757 13.3456 43.825 15.2055 41.5263 15.2041C39.1641 15.2031 37.342 13.3719 37.3475 11.0042Z" fill="white"/>
<path d="M6.42533 25.1221L10.7153 20.741C9.09527 19.0272 7.47317 17.315 5.86369 15.5912C4.63227 14.2728 2.7065 14.1401 1.42697 15.3145C0.151868 16.4848 0.110255 18.3734 1.3386 19.6888C3.03202 21.502 4.73122 23.3097 6.42533 25.1221Z" fill="white"/>
<path d="M35.8633 17.1829C34.6275 16.173 33.2759 15.3193 31.9493 14.6577C28.3847 12.8793 24.4073 13.0728 20.8287 14.7088C17.4852 16.2371 0.500557 34.0263 0.500557 34.0263C-0.0225161 34.7954 -0.137157 35.6873 0.163785 36.641C0.526487 37.7901 1.34128 38.5047 2.53107 38.7271C3.64717 38.9356 4.59333 38.5709 5.39109 37.7724C7.21791 35.9442 11.9604 31.1899 12.1596 31.0022C12.3121 31.1742 15.7385 34.6726 17.4954 36.0647C20.4377 38.3958 23.7549 39.7293 27.6433 39.3904C30.3136 39.1577 32.8201 38.0143 34.8376 36.2964C40.8982 31.1356 42.6162 22.7003 35.8633 17.1829ZM32.6529 30.1799C31.5327 31.5133 29.813 32.5967 28.0831 33.0423C28.0677 33.0464 28.052 33.0498 28.0367 33.0535C27.9548 33.0743 27.8733 33.0948 27.7914 33.1122C27.6829 33.1361 27.5737 33.1576 27.4638 33.1757L27.4628 33.176C27.1018 33.2361 26.7493 33.2641 26.4044 33.2637C25.9447 33.263 25.4981 33.2115 25.0631 33.117C24.0841 32.9044 23.1615 32.4748 22.2686 31.9193C21.6199 31.5157 21.0126 31.066 20.4308 30.588C20.4196 30.5805 20.4104 30.5767 20.3984 30.5675L16.4032 27.4932C16.0347 27.2083 16.005 26.6627 16.3404 26.3396C16.4312 26.2522 16.8198 25.7807 17.1406 25.4508C18.732 23.6195 20.4493 21.9234 22.5688 20.6735C23.2666 20.262 23.9047 19.9692 24.5308 19.7802C25.1566 19.5916 25.77 19.5066 26.4194 19.511C26.5606 19.512 26.7009 19.5189 26.8404 19.5284C26.909 19.5328 26.9769 19.5393 27.0451 19.5458C27.0922 19.5503 27.139 19.5553 27.1857 19.5612C32.1772 20.1221 36.4222 25.6937 32.6529 30.1799Z" fill="white"/>
</svg>
