<?xml version="1.0" encoding="UTF-8"?><svg id="_圖層_2" xmlns="http://www.w3.org/2000/svg" viewBox="0 0 342.09 218.94"><defs><style>.cls-1,.cls-2{fill:#fff;}.cls-3{fill:#e6f0ff;}.cls-2{stroke:#fff;stroke-linecap:round;stroke-width:2px;}.cls-2,.cls-4{stroke-miterlimit:10;}.cls-5{fill:#c4dcff;}.cls-4{fill:none;stroke:#c4dcff;}.cls-6{fill:#ffce2b;}.cls-7{fill:#b3d2ff;}.cls-8{fill:#839fc7;}</style></defs><g id="Objects"><g><path class="cls-3" d="M0,119.05H90.51s-5.9-9.71-22.12-6.21c0,0-3.06-13.26-19.03-13.26-13.84,0-17.74,13.26-17.74,13.26,0,0-10.06-7.25-18.16,3.27,0,0-11.48-3.43-13.46,2.95Z"/><path class="cls-3" d="M241.09,36.1h90.51s-5.9-9.71-22.12-6.21c0,0-3.06-13.26-19.03-13.26-13.84,0-17.74,13.26-17.74,13.26,0,0-10.06-7.25-18.16,3.27,0,0-11.48-3.43-13.46,2.95Z"/><path class="cls-3" d="M96.71,50.18c-.64-2.88-1.86-5.56-3.55-7.86l2.99-4.32-1.81-1.81-.76-.76-1.81-1.81-4.54,3.15c-2.39-1.54-5.13-2.59-8.04-3.03,0,0,0,0,0,0l-.94-5.19h-6.2l-.99,5.46c-2.88,.61-5.54,1.84-7.84,3.53,0,0,0,0,0,0l-4.33-3-1.81,1.81-.76,.76-1.81,1.81,3.15,4.54c-1.54,2.41-2.59,5.12-3.03,8.06l-5.2,.94v6.2l5.43,.99c.64,2.88,1.86,5.56,3.55,7.86l-2.99,4.32,1.81,1.81,.76,.76,1.81,1.81,4.54-3.15c2.39,1.54,5.13,2.59,8.04,3.03,0,0,0,0,.01,0l.94,5.19h6.2l.99-5.46c2.88-.61,5.53-1.84,7.83-3.53,0,0,0,0,0,0l4.34,3,1.81-1.81,.76-.76,1.81-1.81-3.15-4.55c1.54-2.39,2.59-5.13,3.03-8.04,0,0,0,0,0-.01l5.19-.94v-6.2l-5.43-.99Zm-20.94,17.24c-6.91,0-12.51-5.6-12.51-12.51s5.6-12.51,12.51-12.51,12.51,5.6,12.51,12.51-5.6,12.51-12.51,12.51Z"/><path class="cls-3" d="M324.68,106.86c-.48-2.15-1.39-4.16-2.65-5.88l2.24-3.23-1.36-1.36-.57-.57-1.36-1.36-3.4,2.35c-1.79-1.15-3.84-1.94-6.02-2.27,0,0,0,0,0,0l-.71-3.88h-4.64l-.74,4.08c-2.16,.46-4.14,1.37-5.86,2.64,0,0,0,0,0,0l-3.24-2.24-1.36,1.36-.57,.57-1.36,1.36,2.35,3.4c-1.15,1.81-1.93,3.83-2.26,6.02l-3.89,.71v4.64l4.06,.74c.48,2.16,1.39,4.16,2.65,5.88l-2.24,3.23,1.36,1.36,.57,.57,1.36,1.36,3.4-2.35c1.79,1.15,3.83,1.94,6.01,2.26,0,0,0,0,.01,0l.71,3.88h4.64l.74-4.08c2.16-.46,4.14-1.37,5.86-2.64,0,0,0,0,0,0l3.24,2.25,1.36-1.36,.57-.57,1.36-1.36-2.35-3.4c1.15-1.79,1.94-3.83,2.26-6.01,0,0,0,0,0,0l3.88-.71v-4.64l-4.06-.74Zm-15.66,12.89c-5.17,0-9.36-4.19-9.36-9.36s4.19-9.36,9.36-9.36,9.36,4.19,9.36,9.36-4.19,9.36-9.36,9.36Z"/><path class="cls-3" d="M119.36,29.61c-.34-1.52-.98-2.93-1.87-4.14l1.58-2.28-.96-.95-.4-.4-.95-.95-2.39,1.66c-1.26-.81-2.7-1.37-4.24-1.6,0,0,0,0,0,0l-.5-2.73h-3.26l-.52,2.87c-1.52,.32-2.92,.97-4.13,1.86,0,0,0,0,0,0l-2.28-1.58-.95,.96-.4,.4-.95,.95,1.66,2.39c-.81,1.27-1.36,2.7-1.59,4.24l-2.74,.5v3.26l2.86,.52c.34,1.52,.98,2.93,1.87,4.14l-1.57,2.27,.96,.96,.4,.4,.95,.95,2.39-1.66c1.26,.81,2.7,1.36,4.23,1.59,0,0,0,0,0,0l.5,2.73h3.26l.52-2.88c1.52-.32,2.91-.97,4.13-1.86,0,0,0,0,0,0l2.28,1.58,.96-.96,.4-.4,.95-.95-1.66-2.39c.81-1.26,1.36-2.7,1.59-4.23,0,0,0,0,0,0l2.74-.5v-3.27l-2.86-.52Zm-11.03,9.08c-3.64,0-6.59-2.95-6.59-6.59s2.95-6.59,6.59-6.59,6.59,2.95,6.59,6.59-2.95,6.59-6.59,6.59Z"/><g><rect class="cls-7" x="175.88" y="181.63" width="26.29" height="24.13"/><path class="cls-5" d="M210.81,204.63h-43.21c-1.19,0-2.16,.97-2.16,2.16h0c0,1.19,.97,2.16,2.16,2.16h43.21c1.19,0,2.16-.97,2.16-2.16h0c0-1.19-.97-2.16-2.16-2.16Z"/><g><rect class="cls-5" x="78.38" y="54.91" width="221.48" height="141.87" rx="3.94" ry="3.94"/><path class="cls-3" d="M123.27,19.95H254.96c.51,0,.93,.42,.93,.93V230.8c0,.51-.42,.93-.93,.93H123.27c-.51,0-.93-.42-.93-.93V20.88c0-.51,.42-.93,.93-.93Z" transform="translate(314.96 -63.27) rotate(90)"/><rect class="cls-1" x="99.89" y="77.97" width="45.82" height="45.82"/><rect class="cls-1" x="153.42" y="78.04" width="121.44" height="45.82"/><rect class="cls-1" x="153.42" y="128.63" width="121.44" height="6.44"/><rect class="cls-1" x="153.35" y="139.54" width="121.44" height="6.44"/><rect class="cls-1" x="99.89" y="128.56" width="45.82" height="6.44"/><rect class="cls-1" x="99.89" y="139.54" width="45.82" height="6.44"/></g></g><g><rect class="cls-6" x="78.38" y="157.51" width="221.29" height="16.11"/><polygon points="95.18 157.51 85.14 173.61 78.38 173.61 78.38 173.45 88.32 157.51 95.18 157.51"/><polygon points="110.53 157.51 100.48 173.61 93.63 173.61 103.68 157.51 110.53 157.51"/><polygon points="125.89 157.51 115.84 173.61 108.97 173.61 119.02 157.51 125.89 157.51"/><polygon points="141.24 157.51 131.19 173.61 124.33 173.61 134.38 157.51 141.24 157.51"/><polygon points="156.6 157.51 146.55 173.61 139.69 173.61 149.74 157.51 156.6 157.51"/><polygon points="171.96 157.51 161.91 173.61 155.05 173.61 165.09 157.51 171.96 157.51"/><polygon points="187.32 157.51 177.27 173.61 170.4 173.61 180.45 157.51 187.32 157.51"/><polygon points="202.66 157.51 192.61 173.61 185.76 173.61 195.81 157.51 202.66 157.51"/><polygon points="218.02 157.51 207.97 173.61 201.12 173.61 211.17 157.51 218.02 157.51"/><polygon points="233.37 157.51 223.33 173.61 216.46 173.61 226.51 157.51 233.37 157.51"/><polygon points="248.73 157.51 238.68 173.61 231.82 173.61 241.87 157.51 248.73 157.51"/><polygon points="264.09 157.51 254.04 173.61 247.18 173.61 257.23 157.51 264.09 157.51"/><polygon points="279.45 157.51 269.4 173.61 262.54 173.61 272.58 157.51 279.45 157.51"/><polygon points="294.81 157.51 284.76 173.61 277.89 173.61 287.94 157.51 294.81 157.51"/><polygon points="299.67 163.32 299.67 173.61 293.25 173.61 299.67 163.32"/></g><rect class="cls-3" x="154.23" y="66.71" width="22.65" height="5.58"/><g><rect class="cls-5" x="127.42" y="101.44" width="83.37" height="25.8" transform="translate(-16.27 28.87) rotate(-9.31)"/><path class="cls-4" d="M127.31,108.12c-1.05,.47,38.27-15.56,38.27-15.56l42.57,2.3"/></g><rect class="cls-8" x="22.5" y="208.95" width="319.59" height="9.99"/><g><path class="cls-5" d="M25.07,131.49c-1.09-.32-16.01,65.39,40.69,73.95,0,0,16.68-57.06-40.69-73.95Z"/><line class="cls-2" x1="37.27" y1="153.18" x2="64.96" y2="204.63"/><line class="cls-2" x1="35.88" y1="169.23" x2="48.99" y2="174.96"/><line class="cls-2" x1="59.72" y1="171.1" x2="56.12" y2="188.21"/></g><g><rect class="cls-8" x="250.71" y="9.3" width="24.14" height="45.61"/><rect class="cls-8" x="236.6" width="42.15" height="42.15"/><g><circle class="cls-8" cx="165.45" cy="75.75" r="7.21"/><rect class="cls-8" x="153.35" y="13.56" width="1.53" height="58.73"/><rect class="cls-8" x="164.5" y="13.56" width="1.53" height="58.73"/><rect class="cls-8" x="176.29" y="13.56" width="1.53" height="58.73"/><path class="cls-8" d="M165.56,85.73c-.41,0-.74-.33-.74-.74v-8.22c0-.41,.33-.74,.74-.74s.73,.33,.73,.74v8.22c0,.41-.33,.74-.73,.74Z"/><rect class="cls-8" x="153.35" y="71.69" width="24.47" height="6.28"/><path class="cls-8" d="M165.44,94.87c-1.05,0-2.11-.31-3.03-.95-1.17-.81-1.95-2.03-2.21-3.43-.25-1.4,.05-2.82,.87-3.99,1.01-1.46,2.68-2.27,4.45-2.29,.41,0,.73,.34,.73,.74,0,.41-.39,.69-.74,.73-1.33-.01-2.49,.6-3.22,1.66-.59,.85-.81,1.87-.63,2.89,.18,1.02,.75,1.9,1.6,2.49,1.75,1.21,4.16,.78,5.37-.97,.44-.64,.68-1.38,.69-2.15,0-.4,.33-.73,.74-.73h0c.4,0,.73,.34,.72,.74-.01,1.07-.34,2.09-.95,2.97-1.04,1.49-2.7,2.29-4.39,2.29Z"/></g><g><rect class="cls-8" x="146.87" y="0" width="128.06" height="21.71"/><polygon class="cls-1" points="166.76 3.75 158.56 17.96 150.35 3.75 166.76 3.75"/><polygon class="cls-1" points="179.31 17.96 171.1 3.75 162.9 17.96 179.31 17.96"/><polygon class="cls-1" points="154.12 17.97 146.87 17.97 146.87 5.41 154.12 17.97"/><polygon class="cls-1" points="192.7 3.75 184.49 17.96 176.29 3.75 192.7 3.75"/><polygon class="cls-1" points="205.24 17.96 197.04 3.75 188.84 17.96 205.24 17.96"/><polygon class="cls-1" points="218.64 3.75 210.43 17.96 202.23 3.75 218.64 3.75"/><polygon class="cls-1" points="231.18 17.96 222.98 3.75 214.78 17.96 231.18 17.96"/><polygon class="cls-1" points="244.57 3.75 236.37 17.96 228.17 3.75 244.57 3.75"/><polygon class="cls-1" points="257.12 17.96 248.92 3.75 240.71 17.96 257.12 17.96"/><polygon class="cls-1" points="270.51 3.75 262.31 17.96 254.11 3.75 270.51 3.75"/><polygon class="cls-1" points="274.93 3.88 274.93 17.97 266.66 17.97 274.86 3.75 274.93 3.88"/><rect class="cls-8" x="142.88" y="0" width="3.99" height="21.71"/><rect class="cls-8" x="274.76" y="0" width="3.99" height="21.71"/></g></g><g><path class="cls-5" d="M336.99,152.57c.78-.23,11.4,46.57-28.99,52.67,0,0-11.88-40.64,28.99-52.67Z"/><line class="cls-2" x1="307.72" y1="206.79" x2="329.71" y2="165.56"/><line class="cls-2" x1="318.72" y1="171.7" x2="319.8" y2="184.14"/><path class="cls-2" d="M315.47,192.27c-.11,.21,10.23-4.26,10.23-4.26"/></g><g><rect class="cls-8" x="250.71" y="77.97" width="3.39" height="134.6"/><rect class="cls-8" x="271.46" y="77.97" width="3.39" height="134.6"/><rect class="cls-8" x="252.41" y="93.99" width="20.16" height="1.73"/><rect class="cls-8" x="252.41" y="111.31" width="20.16" height="1.73"/><rect class="cls-8" x="252.41" y="128.63" width="20.16" height="1.73"/><rect class="cls-8" x="252.41" y="145.95" width="20.16" height="1.73"/><rect class="cls-8" x="252.41" y="163.27" width="20.16" height="1.73"/><rect class="cls-8" x="252.41" y="180.6" width="20.16" height="1.73"/></g></g></g></svg>