<?xml version="1.0" encoding="utf-8"?>
<!-- Generator: Adobe Illustrator 26.5.0, SVG Export Plug-In . SVG Version: 6.00 Build 0)  -->
<svg version="1.1" id="_圖層_2" xmlns="http://www.w3.org/2000/svg" xmlns:xlink="http://www.w3.org/1999/xlink" x="0px" y="0px"
	 viewBox="0 0 164.9 164.9" style="enable-background:new 0 0 164.9 164.9;" xml:space="preserve">
<style type="text/css">
	.st0{fill:#E2E2E2;}
	.st1{fill:#898989;}
</style>
<g id="Objects">
	<g>
		<rect class="st0" width="164.9" height="164.9"/>
		<path class="st1" d="M149.7,164.9l-2.3-17.9c-1.9-21.1-21.4-24.8-25.3-26c-3.9-1.2-18-5.1-19.9-9.5c-0.3-0.7-0.5-1.6-0.6-2.8
			c14.7-7.1,24.9-22.2,24.9-39.7c0-24.3-19.7-44-44-44s-44,19.7-44,44c0,17.5,10.2,32.6,24.9,39.7c-0.1,1.1-0.2,2.1-0.5,2.8
			c-1.9,4.4-16,8.3-19.9,9.5c-3.9,1.2-23.3,4.9-25.3,26l-2.3,17.9H149.7z"/>
	</g>
</g>
</svg>
