<?xml version="1.0" encoding="UTF-8"?><svg id="_圖層_2" xmlns="http://www.w3.org/2000/svg" viewBox="0 0 17.53 30.76"><defs><style>.cls-1{fill:#474747;}</style></defs><g id="_圖層_1-2"><path class="cls-1" d="M2.45,0c.66,.14,1.14,.54,1.6,1,4.23,4.25,8.48,8.48,12.72,12.72,.67,.67,.95,1.44,.62,2.35-.12,.33-.33,.65-.58,.9-4.35,4.37-8.71,8.73-13.08,13.09-.66,.66-1.45,.89-2.34,.56-.83-.31-1.3-.95-1.39-1.83-.07-.72,.22-1.3,.72-1.8,.99-.99,1.98-1.98,2.97-2.97,2.79-2.79,5.58-5.58,8.37-8.36,.08-.08,.17-.14,.31-.34-.1-.06-.23-.1-.31-.18C8.3,11.35,4.53,7.57,.75,3.8,.11,3.16-.17,2.41,.11,1.51,.33,.8,.81,.34,1.51,.11c.11-.04,.23-.07,.34-.11h.6Z"/></g></svg>