<svg width="32" height="20" viewBox="0 0 32 20" fill="none" xmlns="http://www.w3.org/2000/svg">
<path d="M20.9063 19.8796C21.4563 20.1123 22.0937 20.0021 22.5313 19.5979L31.5313 11.269C31.8313 10.9934 32 10.6076 32 10.2034C32 9.79923 31.8313 9.41341 31.5313 9.13782L22.5313 0.808974C22.0938 0.404782 21.4563 0.294547 20.9063 0.527265C20.3563 0.759982 20 1.29278 20 1.87458L20 7.26383L2 7.26383C0.89375 7.26383 1.0584e-06 8.13958 9.61669e-07 9.22355L7.86787e-07 11.1833C6.90055e-07 12.2673 0.89375 13.143 2 13.143L20 13.143L20 18.5323C20 19.1202 20.3562 19.6469 20.9063 19.8796Z" fill="#1152A0"/>
</svg>
