<?xml version="1.0" encoding="UTF-8"?><svg id="_圖層_2" xmlns="http://www.w3.org/2000/svg" viewBox="0 0 17.53 30.76"><defs><style>.cls-1{fill:#474747;}</style></defs><g id="_圖層_1-2"><path class="cls-1" d="M15.07,30.76c-.66-.14-1.14-.54-1.6-1C9.24,25.51,5,21.27,.76,17.03c-.67-.67-.95-1.44-.62-2.35,.12-.33,.33-.65,.58-.9C5.06,9.42,9.42,5.06,13.79,.71c.66-.66,1.45-.89,2.34-.56,.83,.31,1.3,.95,1.39,1.83,.07,.72-.22,1.3-.72,1.8-.99,.99-1.98,1.98-2.97,2.97-2.79,2.79-5.58,5.58-8.37,8.36-.08,.08-.17,.14-.31,.34,.1,.06,.23,.1,.31,.18,3.78,3.77,7.55,7.54,11.32,11.31,.65,.65,.92,1.39,.64,2.29-.22,.71-.7,1.17-1.4,1.4-.11,.04-.23,.07-.34,.11h-.6Z"/></g></svg>