<svg xmlns="http://www.w3.org/2000/svg" width="53.241" height="59.96" viewBox="0 0 53.241 59.96">
  <g id="Group_327" data-name="Group 327" transform="translate(0 0)">
    <path id="Path_123" data-name="Path 123" d="M1137.809,541.977a26.413,26.413,0,0,1-3.574-45.294l-.1,2.311a24.627,24.627,0,0,0,3.707,40.994Zm17.413,2.185a26.939,26.939,0,0,1-11.43-.067l.057-1.819a25.1,25.1,0,0,0,11.3.077Zm8.624-48.308a26.416,26.416,0,0,1-2.162,46.039q-.025-1.033-.082-1.974a24.627,24.627,0,0,0,3.177-41.245Q1164.342,497.182,1163.845,495.855Zm-14.183-4.069a26.883,26.883,0,0,1,5.17.5l-.037,1.813a25.046,25.046,0,0,0-5.133-.529q-1.024,0-2.027.082l-.183-1.774Q1148.544,491.788,1149.661,491.786Z" transform="translate(-1123.041 -488.553)" fill="#bebebe" fill-rule="evenodd"/>
    <path id="Path_124" data-name="Path 124" d="M1164.653,486.931c-.032-.2-.13-.662-.36-.751-.06-.024-.252-.1-.316-.045-.112.09-.075.631-.075.769v18.718a2.1,2.1,0,0,1-.618,1.482,2.169,2.169,0,0,1-3.077,0,2.1,2.1,0,0,1-.617-1.482v-19.21a.294.294,0,0,0-.209-.3.8.8,0,0,0-.263-.042.872.872,0,0,0-.277.046.308.308,0,0,0-.242.279v19.226a2.1,2.1,0,0,1-.617,1.482,2.166,2.166,0,0,1-1.538.64l-.026,0-.051,0a2.156,2.156,0,0,1-1.462-.635,2.1,2.1,0,0,1-.614-1.449.185.185,0,0,1,0-.032V486.9a2.724,2.724,0,0,0,.01-.656c-.039-.064-.186-.079-.252-.083-.374-.027-.467.5-.51.766l-1.281,18.264c0,.02,0,.04-.007.06-.269,1.844.485,2.615,1.808,3.746a13.95,13.95,0,0,1,1.758,1.71,10.9,10.9,0,0,1,1.415,2.221,4.614,4.614,0,0,1,.522,2.055l-1.069,24.047a.818.818,0,0,1,0,.1,2.476,2.476,0,0,0,1.025,2.516,2.089,2.089,0,0,0,1.016.255,2.274,2.274,0,0,0,1.053-.262,2.414,2.414,0,0,0,1.152-2.456.16.16,0,0,1,0-.031c0-.007,0-.015,0-.023l-.475-24.156a4.84,4.84,0,0,1,.5-2.01,10.578,10.578,0,0,1,1.327-2.149,13.4,13.4,0,0,1,1.851-1.822c1.314-1.123,2.071-1.892,1.812-3.718a.869.869,0,0,1-.011-.092Zm3.187,18.113a4.7,4.7,0,0,1-.834,3.76,10.9,10.9,0,0,1-1.6,1.567,11.751,11.751,0,0,0-1.6,1.564,8.705,8.705,0,0,0-1.094,1.769,3.231,3.231,0,0,0-.346,1.247l.474,24.107a4.155,4.155,0,0,1-2.139,4.2,4.252,4.252,0,0,1-1.974.486,4.065,4.065,0,0,1-1.975-.5,4.177,4.177,0,0,1-1.974-4.261l0-.023,1.069-24.042a3.083,3.083,0,0,0-.356-1.228,9.059,9.059,0,0,0-1.169-1.84,12.365,12.365,0,0,0-1.533-1.475,10.9,10.9,0,0,1-1.6-1.567,4.7,4.7,0,0,1-.833-3.76l1.282-18.273a.828.828,0,0,1,.011-.09,2.613,2.613,0,0,1,1.54-2.2,2.313,2.313,0,0,1,1.008-.146,2.69,2.69,0,0,1,.864.214,1.773,1.773,0,0,1,1.147,1.387.171.171,0,0,1,0,.031v19.656a.15.15,0,0,1,0,.026.307.307,0,0,0,.088.192.232.232,0,0,0,.13.068h.029a.218.218,0,0,0,.15-.067.309.309,0,0,0,.086-.218V486.4a2.083,2.083,0,0,1,1.512-2,2.853,2.853,0,0,1,.914-.153,2.766,2.766,0,0,1,.923.151,2.066,2.066,0,0,1,1.473,2.022v19.21a.306.306,0,0,0,.086.217.212.212,0,0,0,.309,0,.308.308,0,0,0,.086-.218V485.966a.872.872,0,0,1,.019-.181,1.863,1.863,0,0,1,1.131-1.236,2.7,2.7,0,0,1,.864-.214,2.317,2.317,0,0,1,1.007.146,2.623,2.623,0,0,1,1.544,2.223c0,.023.006.045.007.068Z" transform="translate(-1140.862 -483.78)" fill="#bebebe" fill-rule="evenodd"/>
    <path id="Path_125" data-name="Path 125" d="M1211.826,484.84c-.127-.01-.292-.029-.437-.035.005.143.017.293.02.432v.024l.668,53.739c0,.016,0,.031,0,.046a.176.176,0,0,1,0,.029,1.748,1.748,0,0,0,.912,1.833,2.254,2.254,0,0,0,1.059.2,2.615,2.615,0,0,0,1.127-.3,2.346,2.346,0,0,0,1.156-2.472.813.813,0,0,1-.006-.112,76.334,76.334,0,0,0-.931-8.566,71.671,71.671,0,0,1-1.028-11.131.93.93,0,0,1,.824-.9l.026,0c1.526-.161,2.829-2.382,3.417-3.549a27.9,27.9,0,0,0,2.541-9.769,26.887,26.887,0,0,0-1.172-11.1c-1.383-3.912-3.967-7.075-8.176-8.367m.273-1.82a.981.981,0,0,1,.186.036c4.882,1.454,7.924,5.029,9.527,9.561a28.643,28.643,0,0,1,1.269,11.841,29.671,29.671,0,0,1-2.728,10.415c-.826,1.639-2.2,3.708-4.08,4.379a75.459,75.459,0,0,0,1.014,10.153,78.215,78.215,0,0,1,.947,8.759,4.087,4.087,0,0,1-2.131,4.245,4.616,4.616,0,0,1-1.98.535,4.237,4.237,0,0,1-1.989-.391,3.485,3.485,0,0,1-1.968-3.59l-.668-53.683a2.214,2.214,0,0,1,.57-1.9,2.73,2.73,0,0,1,2.006-.367Z" transform="translate(-1179.44 -482.987)" fill="#bebebe" fill-rule="evenodd"/>
    <path id="Path_126" data-name="Path 126" d="M1227.775,509.225a.982.982,0,1,1,1.816-.747,24.9,24.9,0,0,1,1.782,8.445,30.663,30.663,0,0,1-1.031,9.16.984.984,0,0,1-1.9-.508,28.681,28.681,0,0,0,.969-8.574,22.949,22.949,0,0,0-1.635-7.776" transform="translate(-1190.915 -498.728)" fill="#bebebe" fill-rule="evenodd"/>
  </g>
</svg>
