<?xml version="1.0" encoding="utf-8"?>
<!-- Generator: Adobe Illustrator 26.5.0, SVG Export Plug-In . SVG Version: 6.00 Build 0)  -->
<svg version="1.1" id="_圖層_1" xmlns="http://www.w3.org/2000/svg" xmlns:xlink="http://www.w3.org/1999/xlink" x="0px" y="0px"
	 viewBox="0 0 53.2 60" style="enable-background:new 0 0 53.2 60;" xml:space="preserve">
<style type="text/css">
	.st0{fill-rule:evenodd;clip-rule:evenodd;fill:#2E75B7;}
</style>
<g id="Group_327">
	<path id="Path_123" class="st0" d="M14.8,53.4C1.7,47-3.7,31.2,2.7,18.1c1.9-4,4.9-7.4,8.5-9.9l-0.1,2.3C0.5,19-1.3,34.4,7.1,45.1
		c2.1,2.6,4.7,4.8,7.7,6.4C14.8,51.5,14.8,53.4,14.8,53.4z M32.2,55.6c-3.8,0.8-7.7,0.8-11.4-0.1l0.1-1.8c3.7,0.9,7.6,0.9,11.3,0.1
		C32.1,53.8,32.2,55.6,32.2,55.6z M40.8,7.3c12.4,7.7,16.1,24,8.4,36.4c-2.6,4.1-6.2,7.5-10.6,9.7c0-0.7,0-1.3-0.1-2
		c12-6.5,16.4-21.4,9.9-33.4c-1.7-3.1-4-5.7-6.7-7.9C41.4,9.2,41.1,8.2,40.8,7.3L40.8,7.3z M26.6,3.3c1.7,0,3.5,0.2,5.2,0.5v1.8
		C30.1,5.2,28.3,5,26.6,5c-0.7,0-1.4,0-2,0.1l-0.2-1.8C25.1,3.3,25.9,3.3,26.6,3.3L26.6,3.3z"/>
	<path id="Path_124" class="st0" d="M23.8,3.2c0-0.2-0.1-0.7-0.4-0.8c-0.1,0-0.2-0.1-0.3,0C23,2.5,23,3,23,3.1v18.7
		c0,0.6-0.2,1.1-0.6,1.5c-0.8,0.9-2.2,0.9-3.1,0l0,0c-0.4-0.4-0.6-0.9-0.6-1.5V2.7c0-0.1-0.1-0.3-0.2-0.3s-0.2,0-0.3,0s-0.2,0-0.3,0
		c-0.1,0-0.2,0.1-0.2,0.3v19.2c0,0.6-0.2,1.1-0.6,1.5s-1,0.6-1.5,0.6h-0.1c-0.6,0-1.1-0.2-1.5-0.6s-0.6-0.9-0.6-1.5l0,0V3.1
		c0-0.2,0-0.4,0-0.7c0-0.1-0.2-0.1-0.2-0.1c-0.4,0-0.5,0.5-0.5,0.8l-1.3,18.3c0,0,0,0,0,0.1c-0.3,1.8,0.5,2.6,1.8,3.8
		c0.6,0.5,1.2,1.1,1.8,1.7c0.6,0.7,1,1.4,1.4,2.2c0.3,0.6,0.5,1.3,0.5,2l-1.1,24.1v0.1c-0.2,1,0.2,2,1,2.5c0.3,0.2,0.7,0.3,1,0.3
		c0.4,0,0.7-0.1,1-0.3c0.9-0.5,1.3-1.5,1.1-2.5l0,0l0,0l-0.5-24.2c0-0.7,0.2-1.4,0.5-2c0.4-0.8,0.8-1.5,1.3-2.1
		c0.6-0.7,1.2-1.3,1.9-1.8c1.3-1.1,2.1-1.9,1.8-3.7v-0.1L23.8,3.2L23.8,3.2z M27,21.3c0.3,1.3,0,2.7-0.8,3.8c-0.5,0.6-1,1.1-1.6,1.6
		s-1.1,1-1.6,1.6c-0.4,0.5-0.8,1.1-1.1,1.8c-0.2,0.4-0.3,0.8-0.4,1.2l0.5,24c0.2,1.7-0.6,3.4-2.1,4.2c-0.6,0.3-1.3,0.5-2,0.5
		s-1.4-0.2-2-0.5c-1.5-0.9-2.2-2.6-2-4.3l0,0l1.1-24c0-0.4-0.1-0.9-0.4-1.2c-0.3-0.7-0.7-1.3-1.2-1.8s-1-1-1.5-1.5
		c-0.6-0.5-1.1-1-1.6-1.6c-0.8-1.1-1.1-2.5-0.8-3.8L10.8,3V2.9c0.1-1,0.7-1.8,1.5-2.2c0.3-0.1,0.7-0.2,1-0.1c0.3,0,0.6,0.1,0.9,0.2
		c0.6,0.2,1.1,0.7,1.1,1.4l0,0v19.7l0,0c0,0.1,0,0.1,0.1,0.2l0.1,0.1l0,0c0.1,0,0.1,0,0.1-0.1c0.1-0.1,0.1-0.1,0.1-0.2V2.6
		c0-0.9,0.6-1.8,1.5-2c0.3-0.1,0.6-0.1,0.9-0.1s0.6,0.1,0.9,0.1c0.9,0.3,1.5,1.1,1.5,2v19.2c0,0.1,0,0.2,0.1,0.2
		c0.1,0.1,0.2,0.1,0.3,0l0,0c0.1-0.1,0.1-0.1,0.1-0.2V2.2c0-0.1,0-0.1,0-0.2c0.2-0.6,0.6-1,1.1-1.2c0.3-0.1,0.6-0.2,0.9-0.2
		s0.7,0,1,0.2c1,0.3,1.6,1.2,1.7,2.1c0,0,0,0,0,0.1L27,21.3L27,21.3z"/>
	<path id="Path_125" class="st0" d="M32.4,1.9c-0.1,0-0.3,0-0.4,0c0,0.1,0,0.3,0,0.4l0,0L32.6,56l0,0l0,0c-0.1,0.7,0.2,1.5,0.9,1.8
		c0.3,0.2,0.7,0.2,1.1,0.2c0.4,0,0.8-0.1,1.1-0.3c0.9-0.5,1.3-1.5,1.2-2.5v-0.1c-0.2-2.9-0.5-5.7-0.9-8.6c-0.6-3.7-1-7.4-1-11.1
		c0-0.5,0.4-0.8,0.8-0.9l0,0c1.5-0.2,2.8-2.4,3.4-3.5c1.4-3.1,2.3-6.4,2.5-9.8c0.4-3.7,0-7.5-1.2-11.1C39.2,6.3,36.6,3.2,32.4,1.9
		 M32.7,0c0.1,0,0.1,0,0.2,0c4.9,1.5,7.9,5,9.5,9.6c1.2,3.8,1.7,7.8,1.3,11.8c-0.3,3.6-1.2,7.1-2.7,10.4c-0.8,1.6-2.2,3.7-4.1,4.4
		c0.1,3.4,0.5,6.8,1,10.2c0.5,2.9,0.8,5.8,1,8.8c0.3,1.7-0.6,3.4-2.1,4.2c-0.6,0.3-1.3,0.5-2,0.5s-1.4-0.1-2-0.4
		c-1.4-0.6-2.2-2.1-2-3.6L30.1,2.3c-0.1-0.7,0.1-1.4,0.6-1.9C31.2,0,32-0.1,32.7,0L32.7,0L32.7,0z"/>
	<path id="Path_126" class="st0" d="M36.9,10.5c-0.2-0.5,0-1.1,0.5-1.3s1.1,0,1.3,0.5l0,0c1.1,2.7,1.7,5.6,1.8,8.4
		c0.1,3.1-0.2,6.2-1,9.2c-0.2,0.5-0.7,0.8-1.2,0.6c-0.5-0.1-0.8-0.7-0.7-1.2c0.8-2.8,1.1-5.7,1-8.6C38.4,15.6,37.9,13,36.9,10.5"/>
</g>
</svg>
