<svg width="21" height="23" viewBox="0 0 21 23" fill="none" xmlns="http://www.w3.org/2000/svg">
<g clip-path="url(#clip0_407_9)">
<path d="M10.59 7.68001L17.8601 0.400007C18.1184 0.14474 18.4669 0.00158691 18.83 0.00158691C19.1932 0.00158691 19.5417 0.14474 19.8 0.400007V0.400007C19.9356 0.528913 20.0435 0.684032 20.1173 0.855938C20.191 1.02784 20.229 1.21295 20.229 1.40001C20.229 1.58706 20.191 1.77217 20.1173 1.94407C20.0435 2.11598 19.9356 2.2711 19.8 2.40001L11.56 10.6C11.3048 10.8457 10.9643 10.9829 10.61 10.9829C10.2558 10.9829 9.9153 10.8457 9.66005 10.6L1.37005 2.35001C1.11279 2.09275 0.968262 1.74383 0.968262 1.38001C0.968262 1.01619 1.11279 0.667267 1.37005 0.410007C1.62731 0.152747 1.97623 0.00821942 2.34005 0.00821942C2.70387 0.00821942 3.05279 0.152747 3.31005 0.410007L10.59 7.68001Z" fill="white"/>
</g>
<path d="M10.59 19.6784L17.8601 12.3984C18.1184 12.1432 18.4669 12 18.83 12C19.1932 12 19.5417 12.1432 19.8 12.3984V12.3984C19.9356 12.5273 20.0435 12.6824 20.1173 12.8544C20.191 13.0263 20.229 13.2114 20.229 13.3984C20.229 13.5855 20.191 13.7706 20.1173 13.9425C20.0435 14.1144 19.9356 14.2695 19.8 14.3984L11.56 22.5984C11.3048 22.8441 10.9643 22.9813 10.61 22.9813C10.2558 22.9813 9.9153 22.8441 9.66005 22.5984L1.37005 14.3484C1.11279 14.0912 0.968262 13.7422 0.968262 13.3784C0.968262 13.0146 1.11279 12.6657 1.37005 12.4084C1.62731 12.1512 1.97623 12.0066 2.34005 12.0066C2.70387 12.0066 3.05279 12.1512 3.31005 12.4084L10.59 19.6784Z" fill="white"/>
<defs>
<clipPath id="clip0_407_9">
<rect width="19.2" height="11" fill="white" transform="translate(1)"/>
</clipPath>
</defs>
</svg>
