<?xml version="1.0" encoding="utf-8"?>
<!-- Generator: Adobe Illustrator 26.5.0, SVG Export Plug-In . SVG Version: 6.00 Build 0)  -->
<svg version="1.1" id="_圖層_1" xmlns="http://www.w3.org/2000/svg" xmlns:xlink="http://www.w3.org/1999/xlink" x="0px" y="0px"
	 viewBox="0 0 67.9 59.7" style="enable-background:new 0 0 67.9 59.7;" xml:space="preserve">
<style type="text/css">
	.st0{fill:#2E75B7;}
</style>
<path class="st0" d="M6.2,36.9C6,36.2,5.7,35.6,5.7,35c-0.1-2.5-0.1-4.9,0-7.4c0-1.8,0.7-2.4,2.5-2.5c1.2,0,38.5,0,55.9,0
	c0.6,0,1.1,0,1.6,0c1.3,0.1,2.1,0.8,2.1,2.1c0.1,2.7,0,5.3,0,8c0,1.3-0.9,1.8-2.1,2.2c-2.1,0.6-3.4,2-3.8,4.1
	c-0.5,2.7,0.9,5,3.6,5.9c2.2,0.8,2.3,0.9,2.3,3.2c0,2.1,0,4.1,0,6.2c0,2.3-0.6,2.9-3,2.9c-14.1,0-51.5,0-56.1,0
	c-2.6,0-3.1-0.5-3.2-3.1c0-1.9,0-3.8,0-5.8c0-1.7,0.8-2.9,2.5-3.5c2.1-0.8,3.4-2.6,3.5-4.8c0-2.2-1.2-4.2-3.3-5
	C7.8,37.3,7.2,37.2,6.2,36.9L6.2,36.9z M7.9,34.8c4.4,2.3,5.9,4.1,5.9,7.4c0,4.1-2.3,6.4-5.9,7.7v7.5c14.5,0,55.8,0.2,57.6,0v-7.5
	c-3.5-1.2-5.8-3.4-5.9-7.3c-0.1-4.1,2.3-6.4,5.8-7.7v-7.5c-3.8,0-56-0.3-57.6,0.3V34.8z"/>
<path class="st0" d="M16.3,24.4l-1.4-1.5c0.6-0.5,23.5-15.2,34.4-22.2c1.9-1.2,2.8-1,4,1c1.2,1.8,2.3,3.6,3.4,5.4
	c1.1,1.7,1,2-0.2,3.6c-2.5,3.1-1.5,7.2,2.1,8.4c1,0.3,2.2,0.3,3.2,0.1c2.2-0.4,2.4-0.4,3.7,1.6c0.3,0.5,0.5,0.9,0.9,1.5
	c-0.4,0.4-0.7,0.8-1.2,1.3L63,21.4c-3.6,0.8-6.9,0.1-9-3.5c-1.9-3.3-1.1-6.3,1.2-9.1c-1.3-2.1-2.7-4.2-4.1-6.4
	C48,4.4,24,19.5,16.3,24.4L16.3,24.4z"/>
<path class="st0" d="M3.8,29.7c0.4,0.7,0.6,1.2,1,1.8c-0.8,0.7-1.5,1.2-2.3,1.9c1.5,2.3,2.9,4.6,4.4,7c-0.6,0.5-1.4,0.8-1.8,1.2
	c-0.4-0.3-3.3-5-4.6-7.2c-0.7-1.2-0.5-2.1,0.6-2.9C1.8,30.9,2.7,30.4,3.8,29.7L3.8,29.7z"/>
<path class="st0" d="M50,32c0-0.8,0.6-1.4,1.4-1.4l0,0c0.8,0,1.4,0.6,1.4,1.4v1.7c0,0.8-0.6,1.4-1.4,1.4l0,0c-0.8,0-1.4-0.6-1.4-1.4
	C50,33.6,50,32,50,32z"/>
<path class="st0" d="M50,38.5c0-0.8,0.6-1.4,1.4-1.4l0,0c0.8,0,1.4,0.6,1.4,1.4v1.7c0,0.8-0.6,1.4-1.4,1.4l0,0
	c-0.8,0-1.4-0.6-1.4-1.4V38.5z"/>
<path class="st0" d="M50,45.4c0-0.8,0.6-1.4,1.4-1.4l0,0c0.8,0,1.4,0.6,1.4,1.4v1.7c0,0.8-0.6,1.4-1.4,1.4l0,0
	c-0.8,0-1.4-0.6-1.4-1.4V45.4z"/>
<path class="st0" d="M50,51.8c0-0.8,0.6-1.4,1.4-1.4l0,0c0.8,0,1.4,0.6,1.4,1.4v1.7c0,0.8-0.6,1.4-1.4,1.4l0,0
	c-0.8,0-1.4-0.6-1.4-1.4V51.8z"/>
<path class="st0" d="M52.8,27.2c0,0.7-0.6,1.2-1.2,1.2h-0.3c-0.7,0-1.2-0.6-1.2-1.2H52.8z"/>
<path class="st0" d="M50,57.6c0-0.7,0.6-1.2,1.2-1.2h0.3c0.7,0,1.2,0.6,1.2,1.2H50z"/>
<path class="st0" d="M43.5,12.6c-0.4-0.7-0.2-1.5,0.5-1.9l0,0c0.7-0.4,1.5-0.2,1.9,0.5l0.8,1.4c0.4,0.7,0.2,1.5-0.5,1.9l0,0
	c-0.7,0.4-1.5,0.2-1.9-0.5C44.4,14.1,43.5,12.6,43.5,12.6z"/>
<path class="st0" d="M46.8,18.3c-0.4-0.7-0.2-1.5,0.5-1.9l0,0c0.7-0.4,1.5-0.2,1.9,0.5l0.8,1.4c0.4,0.7,0.2,1.5-0.5,1.9l0,0
	c-0.7,0.4-1.5,0.2-1.9-0.5L46.8,18.3z"/>
<path class="st0" d="M42.3,7.5c0.3,0.6,0.1,1.4-0.5,1.7l-0.2,0.1c-0.6,0.4-1.4,0.1-1.7-0.4L42.3,7.5z"/>
</svg>
