<?xml version="1.0" encoding="UTF-8"?><svg id="_圖層_1" xmlns="http://www.w3.org/2000/svg" viewBox="0 0 75.76 39.74"><defs><style>.cls-1{fill:#2e75b7;}</style></defs><path class="cls-1" d="M7.55,13.25c2.83-.71,8.96-1.8,10.58-2.09,1.85-1.81,11.81-11.16,20.62-11.16,1.51,0,4.17,.1,6.74,.21,2.41,.09,4.69,.18,5.89,.18,7.46,0,12.35,5.87,14.7,8.7,.31,.38,.66,.79,.88,1.02,1.78,.02,5.86,.18,6.04,.19l.76,.03,.32,.69c.07,.15,1.67,3.61,1.67,8.31s0,14.68-6.24,14.68h-3.51c-.61,3.26-3.47,5.73-6.91,5.73s-6.44-2.61-6.95-5.99v.26H25.99c-.61,3.26-3.47,5.73-6.91,5.73s-6.33-2.5-6.92-5.79c-1.24-.06-3.45-.14-6.05-.14-4.64,0-5.01-2.08-5.57-5.23-.13-.74-.28-4.71-.5-5.67l-.03-.14v-.14c0-4.48,3.91-8.46,7.55-9.38Zm51.55,23.98c2.5,0,4.53-2.03,4.53-4.53s-2.03-4.53-4.53-4.53-4.53,2.03-4.53,4.53,2.03,4.53,4.53,4.53Zm-40.03,0c2.5,0,4.53-2.03,4.53-4.53s-2.03-4.53-4.53-4.53-4.53,2.03-4.53,4.53,2.03,4.53,4.53,4.53ZM3,28.14c.53,2.99,.56,3.17,3.11,3.17s4.78,.08,6.06,.13c.6-3.28,3.47-5.77,6.91-5.77s6.35,2.52,6.92,5.83h26.16v.16c.51-3.38,3.42-5.99,6.95-5.99s6.35,2.52,6.92,5.83h3.49c3.46,0,3.73-7.05,3.73-12.18,0-2.97-.74-5.42-1.16-6.55-1.45-.05-4.44-.16-5.51-.16-.82,0-1.32-.6-2.42-1.92-2.11-2.53-6.49-7.8-12.78-7.8-1.25,0-3.55-.09-5.99-.19-2.55-.1-5.18-.2-6.64-.2-6.03,0-13.08,5.34-16.7,8.48h16.57V6.5h2.5v4.48h8.6c4.77,0,5.59-3.36,5.67-3.73l2.46,.45c-.37,2-2.54,5.79-8.13,5.79H19.35s-.4,.08-.4,.08c-.08,.01-7.67,1.34-10.79,2.12-2.63,.66-5.57,3.69-5.66,6.81,.22,.96,.36,4.91,.49,5.65Z"/></svg>