<svg width="26" height="18" viewBox="0 0 26 18" fill="none" xmlns="http://www.w3.org/2000/svg">
<path d="M25.229 3.90859C25.229 1.92074 23.5871 0.321625 21.5583 0.321625C18.8102 0.206772 16.0076 0.162598 13.1454 0.162598C12.9966 0.162598 12.8478 0.162598 12.699 0.162598C12.5502 0.162598 12.4013 0.162598 12.2525 0.162598C9.39533 0.162598 6.58774 0.206772 3.83967 0.321625C1.81582 0.321625 0.173924 1.92957 0.173924 3.91742C0.0499138 5.49003 -0.00465074 7.06264 0.000309668 8.63525C-0.00465074 10.2079 0.0499138 11.7805 0.168964 13.3575C0.168964 15.3453 1.81086 16.9577 3.83471 16.9577C6.72167 17.077 9.68303 17.13 12.694 17.1256C15.7099 17.1344 18.6614 17.0814 21.5533 16.9577C23.5821 16.9577 25.224 15.3453 25.224 13.3575C25.3431 11.7805 25.3976 10.2079 25.3927 8.63083C25.4026 7.05822 25.348 5.48562 25.229 3.90859ZM10.2684 12.9688V4.28849L17.461 8.62641L10.2684 12.9688Z" fill="white"/>
</svg>
