<?xml version="1.0" encoding="UTF-8"?><svg id="_圖層_2" xmlns="http://www.w3.org/2000/svg" viewBox="0 0 14.65 13.83"><defs><style>.cls-1{fill:#474647;}</style></defs><g id="_圖層_1-2"><g><path class="cls-1" d="M10.88,3.56c0,1.96-1.59,3.56-3.56,3.56s-3.56-1.59-3.56-3.56S5.36,0,7.32,0s3.56,1.59,3.56,3.56Z"/><path class="cls-1" d="M14.64,13.45c-.65-2.73-2.8-4.88-5.52-5.55-.11-.03-.22,0-.3,.09l-1.1,1.1c-.22,.22-.56,.22-.78,0l-1.1-1.1c-.08-.08-.19-.11-.3-.09C2.81,8.56,.66,10.72,0,13.45c-.05,.19,.11,.38,.31,.38H14.33c.2,0,.35-.19,.31-.38Z"/></g></g></svg>