<?xml version="1.0" encoding="utf-8"?>
<!-- Generator: Adobe Illustrator 26.5.0, SVG Export Plug-In . SVG Version: 6.00 Build 0)  -->
<svg version="1.1" id="圖層_1" xmlns="http://www.w3.org/2000/svg" xmlns:xlink="http://www.w3.org/1999/xlink" x="0px" y="0px"
	 viewBox="0 0 13.6 14.1" style="enable-background:new 0 0 13.6 14.1;" xml:space="preserve">
<style type="text/css">
	.st0{fill:#474647;}
</style>
<path class="st0" d="M3.9,0.2c0.2,0,0.4,0.1,0.5,0.2c0.2,0.3,0.2,0.9-0.5,1c-0.1,0-0.1,0-0.2,0c-0.5,0-0.9,0-1.4,0
	C1.8,1.5,1.6,1.7,1.6,2.1c0,3.4,0,6.7,0,10.1c0,0.4,0.2,0.6,0.7,0.6c3,0,6,0,9,0c0.5,0,0.7-0.2,0.7-0.6c0-3.4,0-6.8,0-10.2
	c0-0.4-0.3-0.6-0.7-0.6c-0.5,0-1,0-1.4,0S9.2,1.1,9.1,0.8c0-0.4,0.1-0.5,0.6-0.7h2.6c0.2,0,0.4,0.1,0.6,0.2c0.3,0.2,0.5,0.4,0.7,0.7
	v12.3c-0.2,0.4-0.5,0.7-1.1,0.8H1.1c-0.1,0-0.1,0-0.2-0.1c-0.5-0.1-0.8-0.4-0.9-0.8V1.1c0.1-0.2,0.2-0.4,0.4-0.6S1,0.2,1.3,0.2H3.9
	L3.9,0.2z"/>
<path class="st0" d="M7.7,0.2c0.2,0,0.4,0.1,0.5,0.3c0.2,0.4,0.1,1-0.7,1c-0.5,0-1,0-1.5,0c-0.4,0-0.7-0.2-0.7-0.4
	c-0.1-0.4,0-0.7,0.3-0.8c0.1,0,0.2-0.1,0.3-0.1H7.7L7.7,0.2z"/>
<path class="st0" d="M6.8,4.7c-1,0-2,0-3.1,0C3.4,4.7,3.1,4.6,3,4.3s0-0.6,0.2-0.7c0.2-0.2,0.4-0.2,0.6-0.2c2,0,4,0,6.1,0
	c0.4,0,0.6,0.1,0.7,0.4c0.1,0.3,0,0.6-0.2,0.7s-0.3,0.1-0.5,0.1C8.8,4.7,7.8,4.7,6.8,4.7L6.8,4.7z"/>
<path class="st0" d="M6.8,10.7c-1,0-2.1,0-3.1,0c-0.4,0-0.6-0.2-0.7-0.5s0.1-0.6,0.4-0.7c0.1,0,0.2-0.1,0.3-0.1c2.1,0,4.2,0,6.2,0
	c0.5,0,0.8,0.3,0.7,0.7c-0.1,0.3-0.3,0.5-0.8,0.5C8.8,10.7,7.8,10.7,6.8,10.7z"/>
<path class="st0" d="M6.8,6.5c1,0,2.1,0,3.1,0c0.4,0,0.6,0.1,0.7,0.4c0.1,0.3,0,0.6-0.3,0.8C10.1,7.8,10,7.8,9.8,7.8
	c-1.8,0-3.5,0-5.3,0c-0.3,0-0.5,0-0.8,0C3.4,7.8,3.1,7.6,3,7.4C2.9,7.1,3,6.8,3.3,6.6c0.1-0.1,0.3-0.1,0.4-0.1
	C4.7,6.5,5.8,6.5,6.8,6.5L6.8,6.5z"/>
</svg>
