<svg width="32" height="32" viewBox="0 0 32 32" fill="none" xmlns="http://www.w3.org/2000/svg">
<path d="M7.71105 8.97841C7.31701 8.97841 7 9.31258 7 9.72795C7 10.1433 7.31701 10.4775 7.71105 10.4775H9.25461L11.0411 20.362C11.1063 20.7149 11.3996 20.971 11.7403 20.971H21.458C21.852 20.971 22.169 20.6368 22.169 20.2215C22.169 19.8061 21.852 19.4719 21.458 19.4719H12.3299L12.0603 17.9729H21.452C21.8757 17.9729 22.249 17.6762 22.3646 17.2452L23.9644 11.2489C24.1333 10.6118 23.68 9.97779 23.0519 9.97779H10.6145L10.5434 9.58741C10.4782 9.2345 10.1849 8.97841 9.84419 8.97841H7.71105ZM12.2143 24.9685C12.9995 24.9685 13.6364 24.2971 13.6364 23.4695C13.6364 22.6419 12.9995 21.9704 12.2143 21.9704C11.4292 21.9704 10.7923 22.6419 10.7923 23.4695C10.7923 24.2971 11.4292 24.9685 12.2143 24.9685ZM22.169 23.4695C22.169 22.6419 21.532 21.9704 20.7469 21.9704C19.9618 21.9704 19.3248 22.6419 19.3248 23.4695C19.3248 24.2971 19.9618 24.9685 20.7469 24.9685C21.532 24.9685 22.169 24.2971 22.169 23.4695Z" fill="white"/>
<circle cx="16" cy="16" r="15.25" stroke="white" stroke-width="1.5"/>
</svg>
