<?xml version="1.0" encoding="utf-8"?>
<!-- Generator: Adobe Illustrator 26.5.0, SVG Export Plug-In . SVG Version: 6.00 Build 0)  -->
<svg version="1.1" id="圖層_1" xmlns="http://www.w3.org/2000/svg" xmlns:xlink="http://www.w3.org/1999/xlink" x="0px" y="0px"
	 viewBox="0 0 30 23.2" style="enable-background:new 0 0 30 23.2;" xml:space="preserve">
<style type="text/css">
	.st0{fill:#8D8D8D;}
</style>
<path class="st0" d="M18.3,19.6c-1,0.1-2,0.3-3,0.3c-5.7,0-9.8-2.7-12.7-7.5c-0.4-0.6-0.4-1.2,0-1.8c0.3-0.5,0.6-0.9,0.9-1.4
	C3.7,9,3.9,8.7,4.1,8.4C4.5,8.7,4.9,9,5.3,9.3c1,0.8,2.1,1.6,3.1,2.4c0.1,0.1,0.3,0.4,0.3,0.5c0.4,3.3,3.4,5.8,6.7,5.5
	c0.7-0.1,1.2,0.2,1.7,0.6c0.4,0.3,0.8,0.7,1.2,1L18.3,19.6L18.3,19.6z"/>
<path class="st0" d="M28.6,20.3c-1.4-1.1-2.8-2.2-4.3-3.3c-0.3-0.2-0.4-0.4,0-0.7c1.3-1.1,2.3-2.4,3.1-3.9c0.2-0.3,0.2-0.6,0.3-0.9
	c-0.1-0.3-0.1-0.6-0.2-0.8C24.8,6,20.8,3.3,15.3,3.1C13.1,3,11,3.5,9,4.5c-0.4,0.2-0.6,0.2-0.8,0C6.4,3.1,4.7,1.8,3,0.5
	C2.5,0.1,2.2,0.2,1.9,0.6C1.6,0.9,1.4,1.2,1.2,1.5C0.8,2,0.8,2.3,1.4,2.7c3,2.3,5.9,4.6,8.9,6.9c3.6,2.8,7.2,5.5,10.7,8.3
	c2,1.6,4,3.1,6.1,4.7c0.4,0.3,0.8,0.3,1.1-0.1c0.2-0.2,0.4-0.5,0.6-0.7C29.3,21.1,29.3,20.8,28.6,20.3L28.6,20.3z M20.8,14.2
	c-0.6-0.4-1.1-0.8-1.6-1.2c-0.1-0.1-0.1-0.3-0.1-0.5c0.6-2.8-1.4-5.3-4.3-5.2c-0.3,0-0.5,0.1-0.8,0.1c0.1,0.3,0.2,0.6,0.3,0.8
	c0,0.2,0,0.5,0,0.8l-0.1,0.1c-1.1-0.8-2.1-1.6-3.2-2.4c1.2-1.6,4.8-2.2,7.2-0.7C21.5,8,22.1,11.7,20.8,14.2L20.8,14.2z"/>
</svg>
