<?xml version="1.0" encoding="utf-8"?>
<!-- Generator: Adobe Illustrator 26.5.0, SVG Export Plug-In . SVG Version: 6.00 Build 0)  -->
<svg version="1.1" id="圖層_1" xmlns="http://www.w3.org/2000/svg" xmlns:xlink="http://www.w3.org/1999/xlink" x="0px" y="0px"
	 viewBox="0 0 30 25.9" style="enable-background:new 0 0 30 25.9;" xml:space="preserve">
<style type="text/css">
	.st0{fill:#8D8D8D;}
</style>
<path class="st0" d="M18.3,22.3c-1,0.1-2,0.3-3,0.3c-5.7,0-9.8-2.7-12.7-7.5c-0.4-0.6-0.4-1.2,0-1.8c0.3-0.5,0.6-0.9,0.9-1.4
	c0.2-0.2,0.4-0.5,0.6-0.8c0.4,0.3,0.8,0.6,1.2,0.9c1,0.8,2.1,1.6,3.1,2.4c0.1,0.1,0.3,0.4,0.3,0.5c0.4,3.3,3.4,5.8,6.7,5.5
	c0.7-0.1,1.2,0.2,1.7,0.6c0.4,0.3,0.8,0.7,1.2,1L18.3,22.3L18.3,22.3z"/>
<path class="st0" d="M28.6,23c-1.4-1.1-2.8-2.2-4.3-3.3c-0.3-0.2-0.4-0.4,0-0.7c1.3-1.1,2.3-2.4,3.1-3.9c0.2-0.3,0.2-0.6,0.3-0.9
	c-0.1-0.3-0.1-0.6-0.2-0.8C24.8,8.7,20.8,6,15.3,5.8C13.1,5.7,11,6.2,9,7.2C8.6,7.4,8.4,7.4,8.2,7.2C6.4,5.8,4.7,4.5,3,3.2
	C2.5,2.8,2.2,2.9,1.9,3.3C1.6,3.6,1.4,3.9,1.2,4.2C0.8,4.7,0.8,5,1.4,5.4c3,2.3,5.9,4.6,8.9,6.9c3.6,2.8,7.2,5.5,10.7,8.3
	c2,1.6,4,3.1,6.1,4.7c0.4,0.3,0.8,0.3,1.1-0.1c0.2-0.2,0.4-0.5,0.6-0.7C29.3,23.8,29.3,23.5,28.6,23L28.6,23z M20.8,16.9
	c-0.6-0.4-1.1-0.8-1.6-1.2c-0.1-0.1-0.1-0.3-0.1-0.5c0.6-2.8-1.4-5.3-4.3-5.2c-0.3,0-0.5,0.1-0.8,0.1c0.1,0.3,0.2,0.6,0.3,0.8
	c0,0.2,0,0.5,0,0.8c0,0-0.1,0.1-0.1,0.1c-1.1-0.8-2.1-1.6-3.2-2.4c1.2-1.6,4.8-2.2,7.2-0.7C21.5,10.7,22.1,14.4,20.8,16.9L20.8,16.9
	z"/>
</svg>
