<?xml version="1.0" encoding="UTF-8"?><svg id="_圖層_1" xmlns="http://www.w3.org/2000/svg" viewBox="0 0 57.61 41.3"><defs><style>.cls-1{fill:#2e75b7;}</style></defs><path class="cls-1" d="M51.2,0H6.41C2.88,0,0,2.88,0,6.41v28.48c0,3.53,2.88,6.41,6.41,6.41H51.2c3.53,0,6.41-2.88,6.41-6.41V6.41c0-3.53-2.88-6.41-6.41-6.41Zm0,2.5c.25,0,.5,.03,.74,.07L28.58,23.24,5.76,2.57c.21-.04,.43-.07,.65-.07H51.2Zm3.91,32.39c0,2.16-1.75,3.91-3.91,3.91H6.41c-2.16,0-3.91-1.75-3.91-3.91V6.41c0-.98,.37-1.86,.97-2.55L28.56,26.6,54.18,3.92c.57,.68,.92,1.54,.92,2.49v28.48Z"/></svg>