<?xml version="1.0" encoding="utf-8"?>
<!-- Generator: Adobe Illustrator 26.5.0, SVG Export Plug-In . SVG Version: 6.00 Build 0)  -->
<svg version="1.1" id="圖層_1" xmlns="http://www.w3.org/2000/svg" xmlns:xlink="http://www.w3.org/1999/xlink" x="0px" y="0px"
	 viewBox="0 0 58.1 41.7" style="enable-background:new 0 0 58.1 41.7;" xml:space="preserve">
<style type="text/css">
	.st0{fill:#BEBEBE;}
</style>
<path class="st0" d="M51.4,0.2H6.6c-3.5,0-6.4,2.9-6.4,6.4v28.5c0,3.5,2.9,6.4,6.4,6.4h44.8c3.5,0,6.4-2.9,6.4-6.4V6.6
	C57.8,3.1,55,0.2,51.4,0.2z M51.4,2.7c0.3,0,0.5,0,0.7,0.1L28.8,23.4L6,2.8c0.2,0,0.4-0.1,0.7-0.1H51.4z M55.3,35.1
	c0,2.2-1.8,3.9-3.9,3.9H6.6c-2.2,0-3.9-1.8-3.9-3.9V6.6c0-1,0.4-1.9,1-2.5l25.1,22.7L54.4,4.1c0.6,0.7,0.9,1.5,0.9,2.5V35.1z"/>
</svg>
