<?xml version="1.0" encoding="utf-8"?>
<!-- Generator: Adobe Illustrator 26.5.0, SVG Export Plug-In . SVG Version: 6.00 Build 0)  -->
<svg version="1.1" id="_圖層_2" xmlns="http://www.w3.org/2000/svg" xmlns:xlink="http://www.w3.org/1999/xlink" x="0px" y="0px"
	 viewBox="0 0 22.2 30" style="enable-background:new 0 0 22.2 30;" xml:space="preserve">
<style type="text/css">
	.st0{fill:#8A8A8A;}
</style>
<g id="_圖層_1-2">
	<path class="st0" d="M20.1,8.3c-2.9,0-5.8,0-8.8,0c-3.1,0-6.2,0-9.3,0c-1.5,0-1.9,0.4-1.7,1.9C1.2,16.2,2,22.1,2.9,28.1
		C3.1,29.7,3.5,30,5.1,30c4.2,0,8.3,0,12.4,0c1.8,0,2.2-0.4,2.4-2.2c0.7-5.7,1.4-11.4,2.1-17.1C22.3,8.7,22.1,8.3,20.1,8.3L20.1,8.3
		L20.1,8.3z M6.5,26.9c-1,0.1-1.4-0.7-1.5-1.5C4.5,21.2,4.1,17.1,3.6,13c-0.1-0.8,0.2-1.5,1-1.6c0.9-0.2,1.4,0.5,1.5,1.3
		C6.4,15.1,6.7,17.5,7,20c0.2,1.7,0.4,3.4,0.6,5C7.7,25.9,7.5,26.7,6.5,26.9L6.5,26.9L6.5,26.9z M12.5,25.3c0,0.8-0.4,1.6-1.3,1.6
		c-1,0-1.3-0.8-1.2-1.7c0-2,0-4.1,0-6.1h0c0-2,0-4.1,0-6.1c0-0.9,0.1-1.7,1.2-1.8c1-0.1,1.3,0.8,1.3,1.6
		C12.5,17,12.5,21.2,12.5,25.3z M19,13.1c-0.5,4.1-1,8.2-1.5,12.3C17.4,26.3,17,27,16,26.8c-1-0.1-1.1-1-1-1.9c0.3-2,0.5-4,0.8-6
		c0.3-2,0.5-4,0.8-6c0.1-0.9,0.4-1.7,1.4-1.6C19,11.4,19.1,12.3,19,13.1C19,13.1,19,13.1,19,13.1z M8.9,2.6c0.5-2.5,0.8-2.8,2.4-2.5
		c2.9,0.4,2.9,0.5,2.6,3.3c2.2,0.4,4.4,0.8,6.7,1.2c1,0.2,1.8,0.4,1.7,1.6c-0.2,1.3-1.2,1.1-2.1,1C15,6.3,9.8,5.4,4.7,4.5
		C3.5,4.3,2.4,4.1,1.3,3.9C0.4,3.8-0.1,3.3,0,2.4c0.2-0.9,0.9-1.2,1.7-1C4.1,1.8,6.5,2.2,8.9,2.6L8.9,2.6L8.9,2.6z"/>
</g>
</svg>
