<svg width="26" height="23" viewBox="0 0 26 23" fill="none" xmlns="http://www.w3.org/2000/svg">
<path d="M17.6891 3.59983L21.5963 7.50696C21.7609 7.67156 21.7609 7.94012 21.5963 8.10473L12.136 17.565L8.11624 18.0112C7.57912 18.0718 7.1243 17.617 7.18494 17.0799L7.6311 13.0601L17.0914 3.59983C17.256 3.43523 17.5245 3.43523 17.6891 3.59983ZM24.7064 2.60789L22.5926 0.49405C21.9341 -0.164358 20.8642 -0.164358 20.2015 0.49405L18.6681 2.02745C18.5035 2.19205 18.5035 2.46061 18.6681 2.62521L22.5752 6.53234C22.7398 6.69694 23.0084 6.69694 23.173 6.53234L24.7064 4.99895C25.3648 4.33621 25.3648 3.26629 24.7064 2.60789V2.60789ZM16.8835 14.992V19.4016H3.02224V5.5404H12.9763C13.1149 5.5404 13.2449 5.48409 13.3445 5.38879L15.0772 3.65614C15.4064 3.32694 15.1725 2.76816 14.709 2.76816H2.32918C1.1813 2.76816 0.25 3.69946 0.25 4.84734V20.0947C0.25 21.2426 1.1813 22.1739 2.32918 22.1739H17.5765C18.7244 22.1739 19.6557 21.2426 19.6557 20.0947V13.2594C19.6557 12.7959 19.0969 12.5663 18.7677 12.8912L17.0351 14.6238C16.9398 14.7235 16.8835 14.8534 16.8835 14.992Z" fill="#8A8A8A"/>
</svg>
