<?xml version="1.0" encoding="utf-8"?>
<!-- Generator: Adobe Illustrator 26.5.0, SVG Export Plug-In . SVG Version: 6.00 Build 0)  -->
<svg version="1.1" id="_圖層_1" xmlns="http://www.w3.org/2000/svg" xmlns:xlink="http://www.w3.org/1999/xlink" x="0px" y="0px"
	 viewBox="0 0 59.1 50.6" style="enable-background:new 0 0 59.1 50.6;" xml:space="preserve">
<style type="text/css">
	.st0{fill:none;stroke:#2E75B7;stroke-width:2.5;stroke-linecap:round;stroke-linejoin:round;}
	.st1{fill:#2E75B7;stroke:#2E75B7;stroke-width:2.5;stroke-linecap:round;stroke-linejoin:round;}
</style>
<path class="st0" d="M4.5,1.2h37.3c1.8,0,3.3,1.5,3.3,3.3v26c0,1.8-1.5,3.3-3.3,3.3H9.2l-7.9,7.1V4.5C1.2,2.7,2.7,1.2,4.5,1.2z"/>
<path class="st0" d="M21,38v1c0,1.8,1.5,3.3,3.3,3.3H50l7.8,7.1V13c0-1.8-1.5-3.3-3.3-3.3h-5.2"/>
<line class="st0" x1="9.6" y1="9.9" x2="25.5" y2="9.9"/>
<line class="st0" x1="9.6" y1="15.6" x2="25.5" y2="15.6"/>
<line class="st0" x1="9.6" y1="21.2" x2="17" y2="21.2"/>
<path class="st0" d="M31.5,10.8c2.1-2.7,5.3-1.7,6.9,0.3c1.3,1.7,0.9,4-0.6,5.4c-0.8,0.7-2.3,0.8-3,1.6c-0.6,0.7-0.4,1.6-0.4,2.6"/>
<path class="st1" d="M34.3,24.8c-0.4,0-0.7,0.4-0.7,0.8s0.3,0.8,0.7,0.8s0.7-0.4,0.7-0.8S34.7,24.8,34.3,24.8z"/>
</svg>
