<svg width="50" height="49" viewBox="0 0 50 49" fill="none" xmlns="http://www.w3.org/2000/svg">
<path d="M49 24.5C49 37.4597 38.274 48 25 48C11.726 48 1 37.4597 1 24.5C1 11.5403 11.726 1 25 1C38.274 1 49 11.5403 49 24.5Z" stroke="#D54C3F" stroke-width="2"/>
<path d="M14.3371 24.9519C14.1127 19.0464 19.2855 13.5905 25.196 13.5199C28.2081 13.2636 31.1376 14.4341 33.42 16.3413C32.4844 17.3685 31.532 18.3865 30.5171 19.3364C28.5076 18.118 26.0929 17.1874 23.7457 18.0141C19.9627 19.0896 17.671 23.5571 19.0728 27.2578C20.2306 31.1256 24.9325 33.2459 28.619 31.6214C30.5263 30.94 31.7832 29.1799 32.337 27.2871C30.1495 27.2435 27.962 27.2703 25.7761 27.2095C25.7691 25.9094 25.7641 24.6133 25.7691 23.3126C29.4167 23.3059 33.07 23.2961 36.7224 23.3274C36.9443 26.5158 36.4754 29.927 34.4018 32.4872C31.566 36.1394 26.3226 37.2109 22.0561 35.777C17.5304 34.2905 14.238 29.7314 14.3371 24.9519Z" fill="#D54C3F"/>
</svg>
