<?xml version="1.0" encoding="utf-8"?>
<!-- Generator: Adobe Illustrator 26.5.0, SVG Export Plug-In . SVG Version: 6.00 Build 0)  -->
<svg version="1.1" id="圖層_1" xmlns="http://www.w3.org/2000/svg" xmlns:xlink="http://www.w3.org/1999/xlink" x="0px" y="0px"
	 viewBox="0 0 77.2 58.8" style="enable-background:new 0 0 77.2 58.8;" xml:space="preserve">
<style type="text/css">
	.st0{fill:#2E75B7;}
</style>
<path class="st0" d="M76.8,2.5c-1.1-1.1-2.4-1.8-3.8-2.2h-0.1c-1.7-0.4-3.5-0.4-5.2,0.1C66,0.9,64.5,1.8,63.2,3
	c-0.6,0.6-1.1,1.2-1.4,1.9c-1.2-1.8-2.9-3.2-4.8-4c-2.4-1-5.2-1-7.6,0.2C46.9,2.3,45,4.4,44,7c-0.2,0.6,0,1.3,0.6,1.5
	c0.3,0.1,0.6,0.1,0.9,0c3-1.4,5.7-1.6,7.7-0.4c1.2,0.7,2.1,1.7,2.7,2.9c0.7,1.4,1.1,2.9,1.1,4.5c0.1,4.8-2.2,9.3-5.9,12.2
	c-8.7,6.9-16.1,1.8-23.2-3.2c-8.4-5.8-17.1-11.8-27.5,0.4C0,25.2-0.1,25.6,0,26c2.5,9.4,9,17.2,17.8,21.3
	c2.2,6.9,8.6,11.5,15.7,11.5c0.6,0,1.2,0,1.8-0.1c0.2,0,0.5-0.1,0.6-0.3c0.2-0.2,0.4-0.5,0.4-0.8S36.2,57,36,56.8
	c-1.6-1.9-3-4-4-6.3c8.4,0,16.3-3.2,22.4-8.9l0.1-0.1c6.4-6,10.2-14.5,10.4-23.3C65,15,66.2,12,68.2,9.6c2-2.5,4.9-4.3,8-5.1
	c0.2,0,0.4-0.2,0.5-0.3C76.9,4,77,3.7,77,3.4S77.1,2.7,76.8,2.5z M30.8,48L30.8,48L30.8,48l0.2-0.1v-0.1l0,0l-0.1-0.5l-0.2,0.1
	l0.2-0.1L30.8,47h-0.2l0,0l0.2-0.1l-0.1-0.5l-0.2,0.1l0,0l0.2-0.1l-0.1-0.7l-0.2,0.1l0.2-0.1v-0.2c-0.1-0.6-0.2-1.1-0.3-1.7
	c3.6,1.4,7.4,2,11.3,1.8l1.1-0.1c0.1,0,0.1,0,0.2,0l2.4-0.3c-4.4,2.1-9.2,3.2-14.1,3V48H30.8z M28.3,44.7L28.3,44.7L28.3,44.7
	L28.3,44.7z M28.4,44.9L28.4,44.9L28.4,44.9L28.4,44.9z M28.4,45.2L28.4,45.2L28.4,45.2L28.4,45.2z M28.8,47L28.8,47L28.8,47
	L28.8,47z M28.8,47.2L28.8,47.2L28.8,47.2L28.8,47.2z M28.9,47.6L28.9,47.6L28.9,47.6L28.9,47.6z M29.2,48.6L29.2,48.6L29.2,48.6
	L29.2,48.6z M29.3,48.7L29.3,48.7L29.3,48.7L29.3,48.7z M30.4,46.4L30.4,46.4L30.4,46.4L30.4,46.4z M30.5,47L30.5,47L30.5,47
	L30.5,47z M30.8,48.1L30.8,48.1L30.8,48.1L30.8,48.1z M52.6,40c-0.5,0.3-1,0.5-1.6,0.8l-0.2,0.1c-0.2,0.1-0.5,0.2-0.7,0.3l-3.9,1.3
	c0,0-0.1,0-0.2,0l-0.4,0.1c0,0-0.1,0-0.2,0l-3.6,0.5h-0.1h-0.4c-4.2,0.2-8.3-0.6-12.1-2.4c-0.2-0.1-0.4-0.1-0.6-0.1
	c-0.3,0-0.6,0.2-0.8,0.4c-0.2,0.2-0.3,0.5-0.2,0.8l0,0c0,0.5,0.1,0.9,0.1,1.4l0,0l0,0l0.1,0.6l0.1,0.1v0.2h0.3l0,0L28,44.4v0.1h0.3
	l-0.2,0.1h0.3l0,0l-0.2,0.1v0.1h0.3l0,0l-0.2,0.1V45h0.3l-0.5,0v0.1h0.3l0,0l0,0l-0.2,0.1v0.1h0.3l-0.2,0.1v0.1h0.3l0,0l-0.2,0.1
	h0.3l-0.2,0.1v0.1l0.2-0.1l-0.2,0.2l0.1,0.8h0.3l-0.2,0.1l0.1,0.6l0,0l0.1,0.3h0.2l-0.2,0.1L29,48l0,0l0.3,0.9h0.2l0,0L29.3,49h0.2
	l-0.1,0.1h-0.1v0.2l0,0c0,0.4,0.1,0.7,0.4,1c0.9,2.3,2,4.4,3.5,6.4c-6-0.3-11.3-4.4-13-10.3L19.7,45c-0.7-4.3-2-8.6-3.9-12.5
	l-0.1-0.3c-0.1-0.2-0.2-0.4-0.4-0.7L14.4,30c0-0.1-0.1-0.1-0.2-0.2L13,28.2l-2.1-2L8.8,25c-0.1,0-0.1-0.1-0.2-0.1L8,24.7
	c-0.1,0-0.3-0.1-0.5-0.1l-0.3-0.1c-0.1,0-0.3-0.1-0.5-0.1l-0.3-0.1c-0.2,0-0.4-0.1-0.7-0.1H5.4c-0.2,0-0.4,0-0.7,0H4.6
	c-0.1,0-0.3,0-0.4,0c8.1-7.6,15-2.8,22.3,2.2c7.9,5.4,16,11,26,3.1c4.3-3.3,6.9-8.6,6.8-14.1c0-1.9-0.5-3.8-1.3-5.4s-2.1-3-3.6-3.8
	c-2.1-1.1-4.5-1.3-6.7-0.8c0.7-0.9,1.6-1.6,2.7-2.1c1.6-0.9,3.7-1,5.6-0.2c2.2,1,4,2.8,4.9,5.1c0.1,0.3,0.4,0.6,0.8,0.6
	c0.3,0.1,0.6,0,0.9-0.1C62.8,8.5,63,8.3,63,8l0.1-0.5c0.3-1,0.8-2,1.6-2.7l0,0c1-1,2.2-1.7,3.5-2c1.3-0.4,2.7-0.4,4-0.1h0.1
	c0.4,0.1,0.7,0.2,1.1,0.4c-2.7,1.1-5.1,2.9-7,5.1c-2.4,2.8-3.7,6.4-3.9,10c-0.2,8.2-3.7,16-9.6,21.6C52.9,39.8,52.7,39.9,52.6,40z
	 M16.4,39.7l-0.2,0.2l0.2,0.8c0.2,0.8,0.4,1.5,0.6,2.3l0.3,1.5C10.3,40.6,5,34.2,2.6,26.6l0.6-0.1c0.5-0.1,1-0.1,1.5-0.1l0.9,0.1
	c0.3,0,0.6,0.1,0.9,0.2l1.3,0.4c0.1,0.1,0.3,0.1,0.4,0.2l1.6,1l0.1,0.1l0.6,0.5l0.2-0.2l0,0L10.6,29l1.1,1.2l1.4,2l0.2-0.1l0,0
	l-0.2,0.2l0.5,0.9l0.2-0.1l0,0l-0.2,0.1l0.6,1.3c0.1,0.2,0.2,0.4,0.3,0.6l0.8,1.9c0,0.1,0,0.1,0.1,0.2l0.1,0.2
	c0.1,0.4,0.3,0.8,0.4,1.3l0.3,1.1L16.4,39.7L16.4,39.7z M12.2,30.5L12.2,30.5L12.2,30.5L12.2,30.5z M54.4,41.3L54.4,41.3L54.4,41.3
	L54.4,41.3z"/>
</svg>
