<svg width="25" height="23" viewBox="0 0 25 23" fill="none" xmlns="http://www.w3.org/2000/svg">
<path d="M16.6666 0C13.3548 0 8.46543 0.0139873 7.16509 0.0671391C5.86678 0.123088 4.98295 0.310518 4.20579 0.587467C3.40425 0.872808 2.72361 1.25606 2.04601 1.87803C1.36841 2.5 0.949859 3.12383 0.640012 3.8605C0.338292 4.57385 0.133082 5.38511 0.0731443 6.57683C0.0121907 7.77042 0 8.14994 0 11.1898C0 14.2298 0.0152384 14.6093 0.0731443 15.8029C0.134098 16.9936 0.338292 17.8058 0.640012 18.5192C0.950875 19.254 1.36841 19.8797 2.04601 20.5017C2.72361 21.1227 3.40324 21.5078 4.20579 21.7922C4.98397 22.0682 5.86779 22.2575 7.16509 22.3126C8.46543 22.3685 8.8789 22.3797 12.1907 22.3797C15.5025 22.3797 15.916 22.3657 17.2163 22.3126C18.5136 22.2566 19.3985 22.0682 20.1756 21.7922C20.9761 21.5069 21.6578 21.1227 22.3354 20.5017C23.012 19.8797 23.4316 19.2568 23.7414 18.5192C24.0421 17.8058 24.2483 16.9936 24.3083 15.8029C24.3692 14.6093 24.3814 14.2298 24.3814 11.1898C24.3814 8.14994 24.3662 7.77042 24.3083 6.57683C24.2473 5.38605 24.0421 4.57292 23.7414 3.8605C23.4305 3.12476 23.012 2.5 22.3354 1.87803C21.6578 1.25606 20.9792 0.871876 20.1756 0.587467C19.3985 0.310518 18.5136 0.122156 17.2163 0.0671391C15.916 0.0111898 19.9785 0 16.6666 0ZM12.1907 2.01417C15.4446 2.01417 15.8327 2.02909 17.1178 2.08038C18.3064 2.13167 18.9515 2.31257 19.3802 2.46736C19.9511 2.66971 20.3554 2.91216 20.7841 3.30287C21.2098 3.69451 21.4739 4.06658 21.6944 4.59063C21.861 4.98415 22.0601 5.57627 22.1139 6.66728C22.1719 7.84781 22.1851 8.20216 22.1851 11.1898C22.1851 14.1775 22.1698 14.5328 22.1099 15.7124C22.0479 16.8034 21.8498 17.3956 21.6822 17.7891C21.4546 18.3131 21.1956 18.6842 20.7689 19.0778C20.3432 19.4685 19.9318 19.7109 19.367 19.9133C18.9403 20.0662 18.285 20.249 17.0965 20.2984C15.8022 20.3515 15.4212 20.3637 12.1602 20.3637C8.8982 20.3637 8.51724 20.3497 7.22401 20.2947C6.0344 20.2378 5.37915 20.0559 4.95248 19.9021C4.37443 19.6932 3.97722 19.4554 3.55156 19.0638C3.12387 18.6731 2.85059 18.2954 2.63726 17.7769C2.46963 17.3853 2.27255 16.7838 2.21058 15.6928C2.16487 14.5179 2.14861 14.1552 2.14861 11.1759C2.14861 8.19563 2.16487 7.83196 2.21058 6.64304C2.27255 5.55203 2.46963 4.95151 2.63726 4.55986C2.85059 4.02835 3.12387 3.66468 3.55156 3.2721C3.97722 2.88139 4.37443 2.62962 4.95248 2.43473C5.37915 2.27993 6.02018 2.0981 7.20877 2.04215C8.50403 2.00019 8.88499 1.9862 12.145 1.9862L12.1907 2.01417V2.01417ZM12.1907 5.44386C8.73159 5.44386 5.93078 8.01752 5.93078 11.1898C5.93078 14.365 8.73464 16.9358 12.1907 16.9358C15.6498 16.9358 18.4506 14.3622 18.4506 11.1898C18.4506 8.01473 15.6468 5.44386 12.1907 5.44386ZM12.1907 14.9198C9.94559 14.9198 8.12714 13.2506 8.12714 11.1898C8.12714 9.12905 9.94559 7.4599 12.1907 7.4599C14.4358 7.4599 16.2543 9.12905 16.2543 11.1898C16.2543 13.2506 14.4358 14.9198 12.1907 14.9198ZM20.1614 5.21727C20.1614 5.95859 19.5051 6.56005 18.6985 6.56005C17.8909 6.56005 17.2356 5.95766 17.2356 5.21727C17.2356 4.47687 17.8919 3.87542 18.6985 3.87542C19.5041 3.87448 20.1614 4.47687 20.1614 5.21727Z" fill="white"/>
</svg>
