<svg width="30" height="28" viewBox="0 0 30 28" fill="none" xmlns="http://www.w3.org/2000/svg">
<path d="M23.72 11.1485C23.8292 11.1363 23.9397 11.1469 24.0444 11.1795C24.1491 11.2121 24.2456 11.266 24.3276 11.3377C24.4096 11.4094 24.4752 11.4972 24.5201 11.5954C24.565 11.6937 24.5882 11.8001 24.5882 11.9077C24.5882 12.0154 24.565 12.1218 24.5201 12.22C24.4752 12.3183 24.4096 12.4061 24.3276 12.4778C24.2456 12.5495 24.1491 12.6034 24.0444 12.636C23.9397 12.6686 23.8292 12.6791 23.72 12.667H21.57V14.0189H23.72C23.8215 14.0176 23.9222 14.0362 24.0162 14.0736C24.1103 14.1111 24.1957 14.1666 24.2675 14.2369C24.3392 14.3072 24.3959 14.3909 24.4341 14.483C24.4723 14.5751 24.4913 14.6738 24.49 14.7732C24.49 14.9733 24.4089 15.1652 24.2645 15.3066C24.1201 15.4481 23.9242 15.5276 23.72 15.5276H20.8C20.5966 15.525 20.4022 15.4447 20.2584 15.3038C20.1145 15.1629 20.0326 14.9725 20.03 14.7732V9.04224C20.0326 8.84297 20.1145 8.65257 20.2584 8.51165C20.4022 8.37073 20.5966 8.29044 20.8 8.28791H23.73C23.9342 8.28791 24.1301 8.36738 24.2745 8.50885C24.4189 8.65031 24.5 8.84218 24.5 9.04224C24.5 9.2423 24.4189 9.43417 24.2745 9.57564C24.1301 9.7171 23.9342 9.79658 23.73 9.79658H21.58V11.1485H23.72ZM19 14.7732C18.9997 14.9319 18.9482 15.0864 18.8531 15.2148C18.7579 15.3432 18.6239 15.4389 18.47 15.4884C18.3903 15.4978 18.3097 15.4978 18.23 15.4884C18.1081 15.4895 17.9876 15.4627 17.8781 15.4099C17.7687 15.3572 17.6735 15.28 17.6 15.1847L14.6 11.2073V14.7341C14.6 14.9341 14.5189 15.126 14.3745 15.2675C14.2301 15.4089 14.0342 15.4884 13.83 15.4884C13.6258 15.4884 13.4299 15.4089 13.2855 15.2675C13.1411 15.126 13.06 14.9341 13.06 14.7341V9.04224C13.0603 8.88358 13.1117 8.72906 13.2069 8.60067C13.3021 8.47228 13.4361 8.37654 13.59 8.32709C13.6696 8.3161 13.7504 8.3161 13.83 8.32709C13.9467 8.33112 14.061 8.36045 14.1648 8.41296C14.2685 8.46548 14.3591 8.53987 14.43 8.63079L17.43 12.6278V9.04224C17.43 8.84218 17.5111 8.65031 17.6555 8.50885C17.7999 8.36738 17.9958 8.28791 18.2 8.28791C18.4042 8.28791 18.6001 8.36738 18.7445 8.50885C18.8889 8.65031 18.97 8.84218 18.97 9.04224V14.7732H19ZM12 14.7732C12.0029 14.9736 11.9263 15.1672 11.7864 15.3133C11.6465 15.4595 11.4543 15.5468 11.25 15.557C11.1489 15.5596 11.0482 15.5426 10.9538 15.5071C10.8593 15.4716 10.773 15.4182 10.6996 15.35C10.6262 15.2817 10.5673 15.2 10.5262 15.1094C10.4851 15.0189 10.4626 14.9213 10.46 14.8222V9.04224C10.456 8.94316 10.4719 8.84428 10.507 8.75125C10.542 8.65822 10.5954 8.57287 10.6641 8.50008C10.7329 8.42729 10.8156 8.36848 10.9075 8.32703C10.9995 8.28558 11.0989 8.2623 11.2 8.25852C11.4045 8.25572 11.6021 8.33073 11.7513 8.46776C11.9005 8.60479 11.9897 8.79316 12 8.99326V14.7732ZM9 15.5276H6C5.79659 15.525 5.60224 15.4447 5.45839 15.3038C5.31455 15.1629 5.23259 14.9725 5.23 14.7732V9.04224C5.25166 8.85574 5.34263 8.68358 5.48557 8.55858C5.6285 8.43358 5.8134 8.36449 6.005 8.36449C6.1966 8.36449 6.3815 8.43358 6.52443 8.55858C6.66737 8.68358 6.75834 8.85574 6.78 9.04224V14.0189H9C9.20422 14.0189 9.40007 14.0984 9.54447 14.2398C9.68888 14.3813 9.77 14.5732 9.77 14.7732C9.77 14.9733 9.68888 15.1652 9.54447 15.3066C9.40007 15.4481 9.20422 15.5276 9 15.5276ZM29.4 11.6873C29.4 5.24117 22.8 0 14.7 0C6.6 0 0 5.24117 0 11.6873C0 17.4673 5.23 22.3068 12.29 23.2179C12.77 23.3159 13.42 23.5314 13.59 23.933C13.7066 24.3548 13.7237 24.797 13.64 25.2262L13.44 26.4508C13.44 26.8132 13.15 27.8713 14.73 27.2247C16.31 26.5781 23.2 22.3264 26.28 18.8584C28.2302 16.9551 29.349 14.3837 29.4 11.6873Z" fill="#00B900"/>
</svg>
