<svg width="49" height="49" viewBox="0 0 49 49" fill="none" xmlns="http://www.w3.org/2000/svg">
<circle cx="24.5" cy="24.5" r="23.5" stroke="#00B900" stroke-width="2"/>
<path d="M33.72 22.1485C33.8292 22.1363 33.9397 22.1469 34.0444 22.1795C34.1491 22.2121 34.2456 22.266 34.3276 22.3377C34.4096 22.4094 34.4752 22.4972 34.5201 22.5954C34.565 22.6937 34.5882 22.8001 34.5882 22.9077C34.5882 23.0154 34.565 23.1218 34.5201 23.22C34.4752 23.3183 34.4096 23.4061 34.3276 23.4778C34.2456 23.5495 34.1491 23.6034 34.0444 23.636C33.9397 23.6686 33.8292 23.6791 33.72 23.667H31.57V25.0189H33.72C33.8215 25.0176 33.9222 25.0362 34.0162 25.0736C34.1103 25.1111 34.1957 25.1666 34.2675 25.2369C34.3392 25.3072 34.3959 25.3909 34.4341 25.483C34.4723 25.5751 34.4913 25.6738 34.49 25.7732C34.49 25.9733 34.4089 26.1652 34.2645 26.3066C34.1201 26.4481 33.9242 26.5276 33.72 26.5276H30.8C30.5966 26.525 30.4022 26.4447 30.2584 26.3038C30.1145 26.1629 30.0326 25.9725 30.03 25.7732V20.0422C30.0326 19.843 30.1145 19.6526 30.2584 19.5117C30.4022 19.3707 30.5966 19.2904 30.8 19.2879H33.73C33.9342 19.2879 34.1301 19.3674 34.2745 19.5088C34.4189 19.6503 34.5 19.8422 34.5 20.0422C34.5 20.2423 34.4189 20.4342 34.2745 20.5756C34.1301 20.7171 33.9342 20.7966 33.73 20.7966H31.58V22.1485H33.72ZM29 25.7732C28.9997 25.9319 28.9482 26.0864 28.8531 26.2148C28.7579 26.3432 28.6239 26.4389 28.47 26.4884C28.3903 26.4978 28.3097 26.4978 28.23 26.4884C28.1081 26.4895 27.9876 26.4627 27.8781 26.4099C27.7687 26.3572 27.6735 26.28 27.6 26.1847L24.6 22.2073V25.7341C24.6 25.9341 24.5189 26.126 24.3745 26.2675C24.2301 26.4089 24.0342 26.4884 23.83 26.4884C23.6258 26.4884 23.4299 26.4089 23.2855 26.2675C23.1411 26.126 23.06 25.9341 23.06 25.7341V20.0422C23.0603 19.8836 23.1117 19.7291 23.2069 19.6007C23.3021 19.4723 23.4361 19.3765 23.59 19.3271C23.6696 19.3161 23.7504 19.3161 23.83 19.3271C23.9467 19.3311 24.061 19.3604 24.1648 19.413C24.2685 19.4655 24.3591 19.5399 24.43 19.6308L27.43 23.6278V20.0422C27.43 19.8422 27.5111 19.6503 27.6555 19.5088C27.7999 19.3674 27.9958 19.2879 28.2 19.2879C28.4042 19.2879 28.6001 19.3674 28.7445 19.5088C28.8889 19.6503 28.97 19.8422 28.97 20.0422V25.7732H29ZM22 25.7732C22.0029 25.9736 21.9263 26.1672 21.7864 26.3133C21.6465 26.4595 21.4543 26.5468 21.25 26.557C21.1489 26.5596 21.0482 26.5426 20.9538 26.5071C20.8593 26.4716 20.773 26.4182 20.6996 26.35C20.6262 26.2817 20.5673 26.2 20.5262 26.1094C20.4851 26.0189 20.4626 25.9213 20.46 25.8222V20.0422C20.456 19.9432 20.4719 19.8443 20.507 19.7512C20.542 19.6582 20.5954 19.5729 20.6641 19.5001C20.7329 19.4273 20.8156 19.3685 20.9075 19.327C20.9995 19.2856 21.0989 19.2623 21.2 19.2585C21.4045 19.2557 21.6021 19.3307 21.7513 19.4678C21.9005 19.6048 21.9897 19.7932 22 19.9933V25.7732ZM19 26.5276H16C15.7966 26.525 15.6022 26.4447 15.4584 26.3038C15.3145 26.1629 15.2326 25.9725 15.23 25.7732V20.0422C15.2517 19.8557 15.3426 19.6836 15.4856 19.5586C15.6285 19.4336 15.8134 19.3645 16.005 19.3645C16.1966 19.3645 16.3815 19.4336 16.5244 19.5586C16.6674 19.6836 16.7583 19.8557 16.78 20.0422V25.0189H19C19.2042 25.0189 19.4001 25.0984 19.5445 25.2398C19.6889 25.3813 19.77 25.5732 19.77 25.7732C19.77 25.9733 19.6889 26.1652 19.5445 26.3066C19.4001 26.4481 19.2042 26.5276 19 26.5276ZM39.4 22.6873C39.4 16.2412 32.8 11 24.7 11C16.6 11 10 16.2412 10 22.6873C10 28.4673 15.23 33.3068 22.29 34.2179C22.77 34.3159 23.42 34.5314 23.59 34.933C23.7066 35.3548 23.7237 35.797 23.64 36.2262L23.44 37.4508C23.44 37.8132 23.15 38.8713 24.73 38.2247C26.31 37.5781 33.2 33.3264 36.28 29.8584C38.2302 27.9551 39.349 25.3837 39.4 22.6873Z" fill="#00B900"/>
</svg>
