<svg width="27" height="23" viewBox="0 0 27 23" fill="none" xmlns="http://www.w3.org/2000/svg">
<path d="M26 7.38028C26 3.86242 23.0653 1 19.4588 1C16.8117 1 14.5288 2.54096 13.4995 4.75038C12.4712 2.54096 10.1877 1 7.54195 1C3.9339 1 1 3.86242 1 7.38028C1 8.12228 1.13061 8.83384 1.37095 9.49732C1.6446 10.2522 2.05921 10.9419 2.58505 11.5367C2.8092 11.7912 3.05273 12.0276 3.31547 12.2447L13.2934 21.9102C13.3548 21.97 13.4348 22 13.5155 22C13.597 22 13.6776 21.97 13.7395 21.9102L24.0878 11.8837L24.0871 11.8823C24.7579 11.2268 25.2839 10.4311 25.6132 9.54307C25.8634 8.86761 26 8.13899 26 7.38028Z" fill="#FF6C6C" stroke="white" stroke-width="2"/>
</svg>
