<svg width="57" height="57" viewBox="0 0 57 57" fill="none" xmlns="http://www.w3.org/2000/svg">
<path d="M56.5 28.25C56.5 43.8521 43.8521 56.5 28.25 56.5C12.6479 56.5 0 43.8521 0 28.25C0 12.6479 12.6479 0 28.25 0C43.8521 0 56.5 12.6479 56.5 28.25ZM24.9823 43.2081L45.942 22.2485C46.6537 21.5367 46.6537 20.3827 45.942 19.671L43.3645 17.0935C42.6528 16.3817 41.4988 16.3817 40.787 17.0935L23.6935 34.1868L15.713 26.2063C15.0013 25.4946 13.8473 25.4946 13.1355 26.2063L10.558 28.7838C9.84626 29.4955 9.84626 30.6495 10.558 31.3613L22.4048 43.208C23.1166 43.9199 24.2705 43.9199 24.9823 43.2081Z" fill="#1152A0"/>
</svg>
