<svg width="32" height="20" viewBox="0 0 32 20" fill="none" xmlns="http://www.w3.org/2000/svg">
<path d="M11.0938 0.120423C10.5437 -0.112294 9.90625 -0.00205972 9.46875 0.402134L0.46875 8.73098C0.16875 9.00656 0 9.39239 0 9.79658C0 10.2008 0.16875 10.5866 0.46875 10.8622L9.46875 19.191C9.90625 19.5952 10.5437 19.7055 11.0938 19.4727C11.6438 19.24 12 18.7072 12 18.1254V12.7362H30C31.1063 12.7362 32 11.8604 32 10.7764V8.81672C32 7.73274 31.1063 6.85699 30 6.85699H12V1.46774C12 0.879818 11.6438 0.353141 11.0938 0.120423Z" fill="#1152A0"/>
</svg>
