<?xml version="1.0" encoding="UTF-8"?><svg id="_圖層_1" xmlns="http://www.w3.org/2000/svg" viewBox="0 0 118.26 43.25"><defs><style>.cls-1{fill:#fff;}</style></defs><g id="_圖層_2"><g id="_館內導覽"><g id="Group_45"><path id="Path_60" class="cls-1" d="M35.59,11.35c.97,.44,2.03-1.09,2.82-1.49,1.32-.66,3.31-.5,4.73-.3,1.75,.23,3.37,.69,5.1,1.06,2.11,.44,4.24,.78,6.39,1-.11,.34-.24,.68-.4,1-.28,.43-.51,.89-.71,1.36,1.63,.06,3.16-.78,4-2.18h.28c3.41,.06,6.81-.37,10.1-1.26,1.27-.27,2.49-.75,3.6-1.42,.26-.19,.49-.43,.65-.71,.64-1.16-.73-1.56-1.61-2-3.28-1.69-6.86-2.74-10.53-3.09C58.99,1.46,57.12,.22,55.01,0c.21,.72,.49,1.42,.82,2.09,.13,.39,.24,.79,.32,1.2-1.65,.15-3.29,.39-4.92,.71-.65-.83-1.65-1.29-2.7-1.24,.18,.55,.4,1.09,.65,1.61l-.37,.07c-2.24,.56-5.36,1.68-7.7,1.28s-3.49-3.72-5.82-3.92c.05,0,.53,2.86,.53,3.07,.27,1.08,.44,2.18,.48,3.29-.07,1.08-.73,2.02-.71,3.19Z"/><path id="Path_61" class="cls-1" d="M81.51,32.1c.96,.46,2.05-1.06,2.85-1.44,1.53-.5,3.16-.57,4.73-.22,1.75,.27,3.36,.75,5.08,1.16,2.1,.5,4.23,.89,6.38,1.16-.12,.34-.26,.68-.42,1-.3,.42-.55,.88-.76,1.35,1.62,.07,3.15-.74,4-2.11h.28c3.42,.1,6.83-.28,10.14-1.12,1.28-.25,2.5-.71,3.63-1.36,.27-.18,.49-.42,.66-.7,.67-1.17-.7-1.59-1.57-2.05-1.38-.73-2.81-1.36-4.28-1.87-2.03-.71-4.13-1.18-6.26-1.41-.98-1.87-2.81-3.14-4.9-3.41,.18,.72,.43,1.42,.74,2.1,.12,.4,.22,.8,.3,1.2-1.65,.12-3.3,.33-4.93,.62-.62-.82-1.59-1.3-2.62-1.29,.17,.55,.38,1.1,.62,1.62l-.37,.06c-2.25,.51-5.4,1.55-7.73,1.14s-3.42-3.74-5.74-4c.04,.01,.47,2.87,.47,3.09,.25,1.08,.4,2.18,.42,3.29-.08,1.09-.79,2.02-.72,3.19Z"/><path id="Path_62" class="cls-1" d="M14.92,38.48c1.27,.66,2.77-1.32,3.85-1.8,1.8-.79,4.46-.46,6.33-.11,2.32,.43,4.45,1.14,6.73,1.75,2.79,.75,5.61,1.35,8.46,1.8-.17,.46-.37,.91-.6,1.34-.41,.56-.77,1.15-1.07,1.77,2.16,.17,4.24-.84,5.43-2.65h.37c4.53,.3,9.09-.03,13.53-1,1.71-.28,3.36-.84,4.89-1.66,.37-.23,.68-.54,.92-.91,.94-1.53-.87-2.15-2-2.8-1.81-1.03-3.69-1.92-5.64-2.66-2.66-1.02-5.44-1.73-8.26-2.12-1.23-2.53-3.62-4.3-6.4-4.74,.22,.96,.53,1.91,.91,2.82,.15,.53,.26,1.07,.35,1.62-2.21,.09-4.41,.3-6.6,.63-.86-1.03-2.24-2-3.46-1.82,.2,.75,.45,1.48,.75,2.19l-.5,.07c-3.01,.59-7.24,1.89-10.34,1.21s-4.42-5.17-7.5-5.6c.06,.01,.5,3.84,.5,4.14,.3,1.45,.44,2.92,.43,4.4-.13,1.44-1.11,2.65-1.08,4.13Z"/><path id="Path_63" class="cls-1" d="M.32,18.31c.64,.29,1.31-.73,1.82-1,.99-.37,2.05-.46,3.09-.27,1.15,.14,2.21,.41,3.35,.63,1.39,.27,2.78,.47,4.19,.59-.07,.23-.15,.46-.24,.68-.18,.29-.34,.59-.47,.9,1.06,0,2.04-.56,2.57-1.48h.18c2.23-.03,4.44-.36,6.58-1,.83-.2,1.61-.54,2.33-1,.17-.13,.32-.29,.42-.48,.4-.78-.5-1.02-1.08-1.3-.92-.44-1.87-.81-2.85-1.11-1.33-.4-2.71-.66-4.1-.75-.69-1.2-1.92-1.98-3.29-2.1,.14,.46,.32,.92,.54,1.35,.09,.26,.16,.52,.22,.78-1.08,.12-2.14,.29-3.2,.53-.43-.52-1.08-.81-1.76-.77,.13,.34,.28,.68,.45,1l-.24,.05c-1.44,.39-3.46,1.17-5,.94S1.49,12.12-.03,12.02c.03,0,.38,1.86,.38,2,.2,.7,.32,1.42,.36,2.14-.01,.71-.48,1.34-.39,2.15Z"/></g></g></g></svg>