<svg width="19" height="19" viewBox="0 0 19 19" fill="none" xmlns="http://www.w3.org/2000/svg">
<path d="M18.142 16.6849L12.4141 10.9571C13.3458 9.81677 13.8526 8.40259 13.8526 6.91022C13.8526 5.19806 13.1859 3.58813 11.975 2.37756C10.7644 1.16675 9.15469 0.5 7.44244 0.5C5.73013 0.5 4.12039 1.16675 2.90979 2.37756C1.69894 3.58813 1.03223 5.19806 1.03223 6.91022C1.03223 8.62256 1.69894 10.2322 2.90979 11.443C4.15933 12.6927 5.8009 13.3175 7.44244 13.3175C8.87888 13.3175 10.3154 12.839 11.4892 11.882L17.2171 17.6099C17.3447 17.7375 17.5121 17.8015 17.6795 17.8015C17.8469 17.8015 18.0144 17.7375 18.142 17.6099C18.3976 17.3544 18.3976 16.9403 18.142 16.6849ZM3.83476 10.5179C2.87109 9.5542 2.34042 8.27295 2.34042 6.91022C2.34042 5.54736 2.87109 4.26624 3.83476 3.30249C4.79843 2.33887 6.07965 1.80823 7.44244 1.80823C8.80518 1.80823 10.0865 2.33887 11.0501 3.30249C12.0137 4.26624 12.5444 5.54736 12.5444 6.91022C12.5444 8.27295 12.0137 9.5542 11.0501 10.5179C9.06067 12.5072 5.82416 12.5072 3.83476 10.5179Z" fill="#474747" stroke="#474747"/>
</svg>
