<svg width="68" height="60" viewBox="0 0 68 60" fill="none" xmlns="http://www.w3.org/2000/svg">
<path d="M6.22848 36.8794C6.03968 36.2459 5.70608 35.621 5.68962 34.9879C5.62545 32.5229 5.62583 30.0541 5.67188 27.5883C5.70608 25.7868 6.36669 25.1697 8.19776 25.115C9.43034 25.078 46.7096 25.1138 64.1154 25.1192C64.6638 25.1195 65.2154 25.0854 65.7593 25.1348C67.0691 25.2532 67.8294 25.9127 67.8627 27.1954C67.9318 29.8661 67.8981 32.5397 67.8816 35.2121C67.8734 36.561 66.9667 37.0592 65.8132 37.3784C63.7106 37.961 62.3901 39.3325 62.0087 41.5047C61.5335 44.2091 62.9417 46.4919 65.6083 47.4261C67.7862 48.1892 67.8751 48.3073 67.8858 50.6637C67.8948 52.7194 67.9064 54.7755 67.8858 56.8312C67.8627 59.1189 67.2584 59.7228 64.9295 59.7237C50.8133 59.7295 13.3973 59.7245 8.80624 59.7167C6.19147 59.7126 5.67073 59.195 5.65632 56.6103C5.64562 54.6916 5.65337 52.7729 5.6526 50.8538C5.65215 48.2662 5.65215 48.2662 8.12955 47.3578C10.2535 46.5791 11.5745 44.7406 11.6115 42.5117C11.6489 40.2614 10.405 38.3559 8.32329 37.5302C7.75311 37.304 7.15001 37.162 6.22848 36.8794ZM7.93243 34.818C12.3223 37.09 13.8379 38.9376 13.8597 42.2204C13.8869 46.2825 11.5544 48.6208 8.00409 49.8784V57.3997C22.4531 57.3997 63.7612 57.6343 65.6038 57.3874V49.9167C62.1345 48.6734 59.7716 46.4906 59.693 42.6096C59.6107 38.5373 62.0005 36.2216 65.5347 34.9455V27.4381C61.7734 27.4381 9.57758 27.1662 7.93243 27.7096V34.818Z" fill="#BEBEBE"/>
<path d="M16.312 24.4025L14.938 22.9137C15.5789 22.3793 38.4327 7.67229 49.3664 0.751127C51.2869 -0.464549 52.1425 -0.245232 53.4055 1.7072C54.5586 3.4897 55.6911 5.28622 56.8129 7.08892C57.8817 8.80727 57.8504 9.09854 56.5603 10.7021C54.1061 13.7526 55.0868 17.9117 58.642 19.0973C59.6264 19.4255 60.8158 19.4231 61.8553 19.245C64.1035 18.8587 64.2611 18.8394 65.51 20.8075C65.7989 21.2624 66.0474 21.7429 66.3946 22.353C66.0321 22.7434 65.694 23.1075 65.1905 23.6497L62.9788 21.4343C59.3516 22.2131 56.0363 21.5311 53.9673 17.9022C52.1039 14.6329 52.8286 11.587 55.1851 8.75918C53.8304 6.63357 52.5132 4.56714 51.1059 2.35965C47.9476 4.3532 24.0095 19.5255 16.312 24.4025Z" fill="#BEBEBE"/>
<path d="M3.79936 29.7444C4.20661 30.4738 4.45215 30.9143 4.78006 31.5022C3.96055 32.16 3.24192 32.7372 2.43888 33.3818C3.91572 35.7267 5.35677 38.0153 6.86577 40.4116C6.31409 40.8987 5.43951 41.2274 5.03597 41.584C4.63609 41.3257 1.74938 36.6174 0.407796 34.398C-0.287846 33.2473 -0.0866845 32.3057 0.959148 31.5129C1.75764 30.9074 2.66309 30.4429 3.79936 29.7444Z" fill="#BEBEBE"/>
<path d="M49.9844 31.9554C49.9844 31.1913 50.6038 30.5719 51.3679 30.5719V30.5719C52.132 30.5719 52.7514 31.1913 52.7514 31.9554V33.6219C52.7514 34.386 52.132 35.0054 51.3679 35.0054V35.0054C50.6038 35.0054 49.9844 34.386 49.9844 33.6219V31.9554Z" fill="#BEBEBE"/>
<path d="M49.9844 38.4957C49.9844 37.7316 50.6038 37.1121 51.3679 37.1121V37.1121C52.132 37.1121 52.7514 37.7316 52.7514 38.4957V40.1622C52.7514 40.9262 52.132 41.5457 51.3679 41.5457V41.5457C50.6038 41.5457 49.9844 40.9263 49.9844 40.1622V38.4957Z" fill="#BEBEBE"/>
<path d="M49.9844 45.4132C49.9844 44.6491 50.6038 44.0297 51.3679 44.0297V44.0297C52.132 44.0297 52.7514 44.6491 52.7514 45.4132V47.0797C52.7514 47.8438 52.132 48.4632 51.3679 48.4632V48.4632C50.6038 48.4632 49.9844 47.8438 49.9844 47.0797V45.4132Z" fill="#BEBEBE"/>
<path d="M49.9844 51.7648C49.9844 51.0007 50.6038 50.3813 51.3679 50.3813V50.3813C52.132 50.3813 52.7514 51.0007 52.7514 51.7648V53.4313C52.7514 54.1954 52.132 54.8148 51.3679 54.8148V54.8148C50.6038 54.8148 49.9844 54.1954 49.9844 53.4313V51.7648Z" fill="#BEBEBE"/>
<path d="M52.7514 27.2151C52.7514 27.9055 52.1919 28.4653 51.5016 28.4653H51.2342C50.5439 28.4653 49.9844 27.9055 49.9844 27.2151H52.7514Z" fill="#BEBEBE"/>
<path d="M49.9844 57.6096C49.9844 56.9193 50.5439 56.3594 51.2342 56.3594H51.5016C52.1919 56.3594 52.7514 56.9193 52.7514 57.6096H49.9844Z" fill="#BEBEBE"/>
<path d="M43.5529 12.6213C43.1685 11.9609 43.3923 11.114 44.0527 10.7296V10.7296C44.713 10.3452 45.56 10.569 45.9443 11.2294L46.7827 12.6697C47.167 13.33 46.9433 14.177 46.2829 14.5614V14.5614C45.6225 14.9457 44.7756 14.722 44.3912 14.0616L43.5529 12.6213Z" fill="#BEBEBE"/>
<path d="M46.8429 18.2738C46.4586 17.6134 46.6823 16.7665 47.3427 16.3821V16.3821C48.0031 15.9977 48.85 16.2215 49.2344 16.8819L50.0727 18.3222C50.4571 18.9825 50.2333 19.8295 49.5729 20.2138V20.2138C48.9126 20.5982 48.0656 20.3745 47.6813 19.7141L46.8429 18.2738Z" fill="#BEBEBE"/>
<path d="M42.2571 7.52785C42.6043 8.12435 42.4018 8.88954 41.8053 9.23676L41.5745 9.37125C40.9776 9.71846 40.2125 9.51608 39.8652 8.91958L42.2571 7.52785Z" fill="#BEBEBE"/>
</svg>
